<?xml version="1.0" standalone="no"?>
 <!DOCTYPE svg PUBLIC "-//W3C//DTD SVG 1.1//EN" 
 "http://www.w3.org/Graphics/SVG/1.1/DTD/svg11.dtd"> 
<svg
  xmlns:svg="http://www.w3.org/2000/svg"
  xmlns="http://www.w3.org/2000/svg"
  xmlns:xlink="http://www.w3.org/1999/xlink"
  version="1.1"
  width="29.700220cm" height="21.000720cm" viewBox="0 0 116930 82680">
<title>SVG Picture created as Two_transistor_AMP-F_Cu.svg date 2021/12/28 22:24:43 </title>
  <desc>Picture generated by PCBNEW </desc>
<g style="fill:#000000; fill-opacity:1;stroke:#000000; stroke-opacity:1;
stroke-linecap:round; stroke-linejoin:round;"
 transform="translate(0 0) scale(1 1)">
</g>
<g style="fill:#000000; fill-opacity:0.0; 
stroke:#000000; stroke-width:-0.000393701; stroke-opacity:1; 
stroke-linecap:round; stroke-linejoin:round;">
</g>
<g style="fill:#000000; fill-opacity:0.0; 
stroke:#000000; stroke-width:39.3701; stroke-opacity:1; 
stroke-linecap:round; stroke-linejoin:round;">
</g>
<g style="fill:#000000; fill-opacity:0.0; 
stroke:#000000; stroke-width:59.0551; stroke-opacity:1; 
stroke-linecap:round; stroke-linejoin:round;">
<rect x="69685.9" y="65357.2" width="42519.7" height="12598.4" rx="0" />
</g>
<g style="fill:#000000; fill-opacity:0.0; 
stroke:#000000; stroke-width:39.3701; stroke-opacity:1; 
stroke-linecap:round; stroke-linejoin:round;">
</g>
<g style="fill:#000000; fill-opacity:0.0; 
stroke:#000000; stroke-width:59.0551; stroke-opacity:1; 
stroke-linecap:round; stroke-linejoin:round;">
<rect x="3937.01" y="3937.01" width="109056" height="74806" rx="0" />
</g>
<g style="fill:#000000; fill-opacity:0.0; 
stroke:#000000; stroke-width:39.3701; stroke-opacity:1; 
stroke-linecap:round; stroke-linejoin:round;">
</g>
<g style="fill:#000000; fill-opacity:0.0; 
stroke:#000000; stroke-width:59.0551; stroke-opacity:1; 
stroke-linecap:round; stroke-linejoin:round;">
<rect x="4724.41" y="4724.41" width="107481" height="73231.2" rx="0" />
</g>
<g style="fill:#000000; fill-opacity:0.0; 
stroke:#000000; stroke-width:39.3701; stroke-opacity:1; 
stroke-linecap:round; stroke-linejoin:round;">
</g>
<g style="fill:#000000; fill-opacity:0.0; 
stroke:#000000; stroke-width:59.0551; stroke-opacity:1; 
stroke-linecap:round; stroke-linejoin:round;">
<path d="M23622 4724
L23622 3937
" />
</g>
<g style="fill:#000000; fill-opacity:0.0; 
stroke:#000000; stroke-width:39.3701; stroke-opacity:1; 
stroke-linecap:round; stroke-linejoin:round;">
</g>
<g style="fill:#000000; fill-opacity:0.0; 
stroke:#000000; stroke-width:59.0551; stroke-opacity:1; 
stroke-linecap:round; stroke-linejoin:round;">
<path d="M43307 4724
L43307 3937
" />
</g>
<g style="fill:#000000; fill-opacity:0.0; 
stroke:#000000; stroke-width:39.3701; stroke-opacity:1; 
stroke-linecap:round; stroke-linejoin:round;">
</g>
<g style="fill:#000000; fill-opacity:0.0; 
stroke:#000000; stroke-width:59.0551; stroke-opacity:1; 
stroke-linecap:round; stroke-linejoin:round;">
<path d="M62992 4724
L62992 3937
" />
</g>
<g style="fill:#000000; fill-opacity:0.0; 
stroke:#000000; stroke-width:39.3701; stroke-opacity:1; 
stroke-linecap:round; stroke-linejoin:round;">
</g>
<g style="fill:#000000; fill-opacity:0.0; 
stroke:#000000; stroke-width:59.0551; stroke-opacity:1; 
stroke-linecap:round; stroke-linejoin:round;">
<path d="M82677 4724
L82677 3937
" />
</g>
<g style="fill:#000000; fill-opacity:0.0; 
stroke:#000000; stroke-width:39.3701; stroke-opacity:1; 
stroke-linecap:round; stroke-linejoin:round;">
</g>
<g style="fill:#000000; fill-opacity:0.0; 
stroke:#000000; stroke-width:59.0551; stroke-opacity:1; 
stroke-linecap:round; stroke-linejoin:round;">
<path d="M102362 4724
L102362 3937
" />
</g>
<g style="fill:#000000; fill-opacity:0.0; 
stroke:#000000; stroke-width:39.3701; stroke-opacity:1; 
stroke-linecap:round; stroke-linejoin:round;">
</g>
<g style="fill:#000000; fill-opacity:0.0; 
stroke:#000000; stroke-width:59.0551; stroke-opacity:1; 
stroke-linecap:round; stroke-linejoin:round;">
<text x="13779.5" y="4586.61"
textLength="564.211" font-size="682.415" lengthAdjust="spacingAndGlyphs"
text-anchor="start" opacity="0">1</text>
<path d="M14199 4562
L13906 4562
" />
<path d="M14052 4562
L14052 4050
L14004 4123
L13955 4172
L13906 4196
" />
</g>
<g style="fill:#000000; fill-opacity:0.0; 
stroke:#000000; stroke-width:39.3701; stroke-opacity:1; 
stroke-linecap:round; stroke-linejoin:round;">
</g>
<g style="fill:#000000; fill-opacity:0.0; 
stroke:#000000; stroke-width:59.0551; stroke-opacity:1; 
stroke-linecap:round; stroke-linejoin:round;">
<text x="33464.6" y="4586.61"
textLength="546.494" font-size="682.415" lengthAdjust="spacingAndGlyphs"
text-anchor="start" opacity="0">2</text>
<path d="M33591 4099
L33615 4074
L33664 4050
L33786 4050
L33835 4074
L33859 4099
L33884 4147
L33884 4196
L33859 4269
L33567 4562
L33884 4562
" />
</g>
<g style="fill:#000000; fill-opacity:0.0; 
stroke:#000000; stroke-width:39.3701; stroke-opacity:1; 
stroke-linecap:round; stroke-linejoin:round;">
</g>
<g style="fill:#000000; fill-opacity:0.0; 
stroke:#000000; stroke-width:59.0551; stroke-opacity:1; 
stroke-linecap:round; stroke-linejoin:round;">
<text x="53149.6" y="4586.61"
textLength="546.494" font-size="682.415" lengthAdjust="spacingAndGlyphs"
text-anchor="start" opacity="0">3</text>
<path d="M53252 4050
L53569 4050
L53398 4245
L53471 4245
L53520 4269
L53544 4294
L53569 4342
L53569 4464
L53544 4513
L53520 4537
L53471 4562
L53325 4562
L53276 4537
L53252 4513
" />
</g>
<g style="fill:#000000; fill-opacity:0.0; 
stroke:#000000; stroke-width:39.3701; stroke-opacity:1; 
stroke-linecap:round; stroke-linejoin:round;">
</g>
<g style="fill:#000000; fill-opacity:0.0; 
stroke:#000000; stroke-width:59.0551; stroke-opacity:1; 
stroke-linecap:round; stroke-linejoin:round;">
<text x="72834.6" y="4586.61"
textLength="546.494" font-size="682.415" lengthAdjust="spacingAndGlyphs"
text-anchor="start" opacity="0">4</text>
<path d="M73205 4221
L73205 4562
" />
<path d="M73083 4026
L72961 4391
L73278 4391
" />
</g>
<g style="fill:#000000; fill-opacity:0.0; 
stroke:#000000; stroke-width:39.3701; stroke-opacity:1; 
stroke-linecap:round; stroke-linejoin:round;">
</g>
<g style="fill:#000000; fill-opacity:0.0; 
stroke:#000000; stroke-width:59.0551; stroke-opacity:1; 
stroke-linecap:round; stroke-linejoin:round;">
<text x="92519.7" y="4586.61"
textLength="546.494" font-size="682.415" lengthAdjust="spacingAndGlyphs"
text-anchor="start" opacity="0">5</text>
<path d="M92914 4050
L92671 4050
L92646 4294
L92671 4269
L92719 4245
L92841 4245
L92890 4269
L92914 4294
L92939 4342
L92939 4464
L92914 4513
L92890 4537
L92841 4562
L92719 4562
L92671 4537
L92646 4513
" />
</g>
<g style="fill:#000000; fill-opacity:0.0; 
stroke:#000000; stroke-width:39.3701; stroke-opacity:1; 
stroke-linecap:round; stroke-linejoin:round;">
</g>
<g style="fill:#000000; fill-opacity:0.0; 
stroke:#000000; stroke-width:59.0551; stroke-opacity:1; 
stroke-linecap:round; stroke-linejoin:round;">
<text x="112205" y="4586.61"
textLength="546.494" font-size="682.415" lengthAdjust="spacingAndGlyphs"
text-anchor="start" opacity="0">6</text>
<path d="M112575 4050
L112477 4050
L112429 4074
L112404 4099
L112356 4172
L112331 4269
L112331 4464
L112356 4513
L112380 4537
L112429 4562
L112526 4562
L112575 4537
L112599 4513
L112624 4464
L112624 4342
L112599 4294
L112575 4269
L112526 4245
L112429 4245
L112380 4269
L112356 4294
L112331 4342
" />
</g>
<g style="fill:#000000; fill-opacity:0.0; 
stroke:#000000; stroke-width:39.3701; stroke-opacity:1; 
stroke-linecap:round; stroke-linejoin:round;">
</g>
<g style="fill:#000000; fill-opacity:0.0; 
stroke:#000000; stroke-width:59.0551; stroke-opacity:1; 
stroke-linecap:round; stroke-linejoin:round;">
<path d="M23622 77955
L23622 78742
" />
</g>
<g style="fill:#000000; fill-opacity:0.0; 
stroke:#000000; stroke-width:39.3701; stroke-opacity:1; 
stroke-linecap:round; stroke-linejoin:round;">
</g>
<g style="fill:#000000; fill-opacity:0.0; 
stroke:#000000; stroke-width:59.0551; stroke-opacity:1; 
stroke-linecap:round; stroke-linejoin:round;">
<path d="M43307 77955
L43307 78742
" />
</g>
<g style="fill:#000000; fill-opacity:0.0; 
stroke:#000000; stroke-width:39.3701; stroke-opacity:1; 
stroke-linecap:round; stroke-linejoin:round;">
</g>
<g style="fill:#000000; fill-opacity:0.0; 
stroke:#000000; stroke-width:59.0551; stroke-opacity:1; 
stroke-linecap:round; stroke-linejoin:round;">
<path d="M62992 77955
L62992 78742
" />
</g>
<g style="fill:#000000; fill-opacity:0.0; 
stroke:#000000; stroke-width:39.3701; stroke-opacity:1; 
stroke-linecap:round; stroke-linejoin:round;">
</g>
<g style="fill:#000000; fill-opacity:0.0; 
stroke:#000000; stroke-width:59.0551; stroke-opacity:1; 
stroke-linecap:round; stroke-linejoin:round;">
<path d="M82677 77955
L82677 78742
" />
</g>
<g style="fill:#000000; fill-opacity:0.0; 
stroke:#000000; stroke-width:39.3701; stroke-opacity:1; 
stroke-linecap:round; stroke-linejoin:round;">
</g>
<g style="fill:#000000; fill-opacity:0.0; 
stroke:#000000; stroke-width:59.0551; stroke-opacity:1; 
stroke-linecap:round; stroke-linejoin:round;">
<path d="M102362 77955
L102362 78742
" />
</g>
<g style="fill:#000000; fill-opacity:0.0; 
stroke:#000000; stroke-width:39.3701; stroke-opacity:1; 
stroke-linecap:round; stroke-linejoin:round;">
</g>
<g style="fill:#000000; fill-opacity:0.0; 
stroke:#000000; stroke-width:59.0551; stroke-opacity:1; 
stroke-linecap:round; stroke-linejoin:round;">
<text x="13779.5" y="78605.2"
textLength="546.494" font-size="682.415" lengthAdjust="spacingAndGlyphs"
text-anchor="start" opacity="0">1</text>
<path d="M14199 78580
L13906 78580
" />
<path d="M14052 78580
L14052 78069
L14004 78142
L13955 78190
L13906 78215
" />
</g>
<g style="fill:#000000; fill-opacity:0.0; 
stroke:#000000; stroke-width:39.3701; stroke-opacity:1; 
stroke-linecap:round; stroke-linejoin:round;">
</g>
<g style="fill:#000000; fill-opacity:0.0; 
stroke:#000000; stroke-width:59.0551; stroke-opacity:1; 
stroke-linecap:round; stroke-linejoin:round;">
<text x="33464.6" y="78605.2"
textLength="546.494" font-size="682.415" lengthAdjust="spacingAndGlyphs"
text-anchor="start" opacity="0">2</text>
<path d="M33591 78117
L33615 78093
L33664 78069
L33786 78069
L33835 78093
L33859 78117
L33884 78166
L33884 78215
L33859 78288
L33567 78580
L33884 78580
" />
</g>
<g style="fill:#000000; fill-opacity:0.0; 
stroke:#000000; stroke-width:39.3701; stroke-opacity:1; 
stroke-linecap:round; stroke-linejoin:round;">
</g>
<g style="fill:#000000; fill-opacity:0.0; 
stroke:#000000; stroke-width:59.0551; stroke-opacity:1; 
stroke-linecap:round; stroke-linejoin:round;">
<text x="53149.6" y="78605.2"
textLength="546.494" font-size="682.415" lengthAdjust="spacingAndGlyphs"
text-anchor="start" opacity="0">3</text>
<path d="M53252 78069
L53569 78069
L53398 78263
L53471 78263
L53520 78288
L53544 78312
L53569 78361
L53569 78483
L53544 78532
L53520 78556
L53471 78580
L53325 78580
L53276 78556
L53252 78532
" />
</g>
<g style="fill:#000000; fill-opacity:0.0; 
stroke:#000000; stroke-width:39.3701; stroke-opacity:1; 
stroke-linecap:round; stroke-linejoin:round;">
</g>
<g style="fill:#000000; fill-opacity:0.0; 
stroke:#000000; stroke-width:59.0551; stroke-opacity:1; 
stroke-linecap:round; stroke-linejoin:round;">
<text x="72834.6" y="78605.2"
textLength="546.494" font-size="682.415" lengthAdjust="spacingAndGlyphs"
text-anchor="start" opacity="0">4</text>
<path d="M73205 78239
L73205 78580
" />
<path d="M73083 78044
L72961 78410
L73278 78410
" />
</g>
<g style="fill:#000000; fill-opacity:0.0; 
stroke:#000000; stroke-width:39.3701; stroke-opacity:1; 
stroke-linecap:round; stroke-linejoin:round;">
</g>
<g style="fill:#000000; fill-opacity:0.0; 
stroke:#000000; stroke-width:59.0551; stroke-opacity:1; 
stroke-linecap:round; stroke-linejoin:round;">
<text x="92519.7" y="78605.2"
textLength="546.494" font-size="682.415" lengthAdjust="spacingAndGlyphs"
text-anchor="start" opacity="0">5</text>
<path d="M92914 78069
L92671 78069
L92646 78312
L92671 78288
L92719 78263
L92841 78263
L92890 78288
L92914 78312
L92939 78361
L92939 78483
L92914 78532
L92890 78556
L92841 78580
L92719 78580
L92671 78556
L92646 78532
" />
</g>
<g style="fill:#000000; fill-opacity:0.0; 
stroke:#000000; stroke-width:39.3701; stroke-opacity:1; 
stroke-linecap:round; stroke-linejoin:round;">
</g>
<g style="fill:#000000; fill-opacity:0.0; 
stroke:#000000; stroke-width:59.0551; stroke-opacity:1; 
stroke-linecap:round; stroke-linejoin:round;">
<text x="112205" y="78605.2"
textLength="546.494" font-size="682.415" lengthAdjust="spacingAndGlyphs"
text-anchor="start" opacity="0">6</text>
<path d="M112575 78069
L112477 78069
L112429 78093
L112404 78117
L112356 78190
L112331 78288
L112331 78483
L112356 78532
L112380 78556
L112429 78580
L112526 78580
L112575 78556
L112599 78532
L112624 78483
L112624 78361
L112599 78312
L112575 78288
L112526 78263
L112429 78263
L112380 78288
L112356 78312
L112331 78361
" />
</g>
<g style="fill:#000000; fill-opacity:0.0; 
stroke:#000000; stroke-width:39.3701; stroke-opacity:1; 
stroke-linecap:round; stroke-linejoin:round;">
</g>
<g style="fill:#000000; fill-opacity:0.0; 
stroke:#000000; stroke-width:59.0551; stroke-opacity:1; 
stroke-linecap:round; stroke-linejoin:round;">
<path d="M3937 23622
L4724 23622
" />
</g>
<g style="fill:#000000; fill-opacity:0.0; 
stroke:#000000; stroke-width:39.3701; stroke-opacity:1; 
stroke-linecap:round; stroke-linejoin:round;">
</g>
<g style="fill:#000000; fill-opacity:0.0; 
stroke:#000000; stroke-width:59.0551; stroke-opacity:1; 
stroke-linecap:round; stroke-linejoin:round;">
<path d="M3937 43307
L4724 43307
" />
</g>
<g style="fill:#000000; fill-opacity:0.0; 
stroke:#000000; stroke-width:39.3701; stroke-opacity:1; 
stroke-linecap:round; stroke-linejoin:round;">
</g>
<g style="fill:#000000; fill-opacity:0.0; 
stroke:#000000; stroke-width:59.0551; stroke-opacity:1; 
stroke-linecap:round; stroke-linejoin:round;">
<path d="M3937 62992
L4724 62992
" />
</g>
<g style="fill:#000000; fill-opacity:0.0; 
stroke:#000000; stroke-width:39.3701; stroke-opacity:1; 
stroke-linecap:round; stroke-linejoin:round;">
</g>
<g style="fill:#000000; fill-opacity:0.0; 
stroke:#000000; stroke-width:59.0551; stroke-opacity:1; 
stroke-linecap:round; stroke-linejoin:round;">
<text x="4330.71" y="14035.4"
textLength="497.75" font-size="682.415" lengthAdjust="spacingAndGlyphs"
text-anchor="middle" opacity="0">A</text>
<path d="M4208 13864
L4452 13864
" />
<path d="M4160 14011
L4330 13499
L4501 14011
" />
</g>
<g style="fill:#000000; fill-opacity:0.0; 
stroke:#000000; stroke-width:39.3701; stroke-opacity:1; 
stroke-linecap:round; stroke-linejoin:round;">
</g>
<g style="fill:#000000; fill-opacity:0.0; 
stroke:#000000; stroke-width:59.0551; stroke-opacity:1; 
stroke-linecap:round; stroke-linejoin:round;">
<text x="4330.71" y="33720.5"
textLength="570.866" font-size="682.415" lengthAdjust="spacingAndGlyphs"
text-anchor="middle" opacity="0">B</text>
<path d="M4367 33428
L4440 33452
L4464 33476
L4489 33525
L4489 33598
L4464 33647
L4440 33671
L4391 33696
L4196 33696
L4196 33184
L4367 33184
L4416 33208
L4440 33233
L4464 33281
L4464 33330
L4440 33379
L4416 33403
L4367 33428
L4196 33428
" />
</g>
<g style="fill:#000000; fill-opacity:0.0; 
stroke:#000000; stroke-width:39.3701; stroke-opacity:1; 
stroke-linecap:round; stroke-linejoin:round;">
</g>
<g style="fill:#000000; fill-opacity:0.0; 
stroke:#000000; stroke-width:59.0551; stroke-opacity:1; 
stroke-linecap:round; stroke-linejoin:round;">
<text x="4330.71" y="53405.5"
textLength="570.866" font-size="682.415" lengthAdjust="spacingAndGlyphs"
text-anchor="middle" opacity="0">C</text>
<path d="M4489 53332
L4464 53356
L4391 53381
L4342 53381
L4269 53356
L4221 53308
L4196 53259
L4172 53161
L4172 53088
L4196 52991
L4221 52942
L4269 52893
L4342 52869
L4391 52869
L4464 52893
L4489 52918
" />
</g>
<g style="fill:#000000; fill-opacity:0.0; 
stroke:#000000; stroke-width:39.3701; stroke-opacity:1; 
stroke-linecap:round; stroke-linejoin:round;">
</g>
<g style="fill:#000000; fill-opacity:0.0; 
stroke:#000000; stroke-width:59.0551; stroke-opacity:1; 
stroke-linecap:round; stroke-linejoin:round;">
<text x="4330.71" y="73090.6"
textLength="570.866" font-size="682.415" lengthAdjust="spacingAndGlyphs"
text-anchor="middle" opacity="0">D</text>
<path d="M4196 73066
L4196 72554
L4318 72554
L4391 72578
L4440 72627
L4464 72676
L4489 72773
L4489 72846
L4464 72944
L4440 72993
L4391 73041
L4318 73066
L4196 73066
" />
</g>
<g style="fill:#000000; fill-opacity:0.0; 
stroke:#000000; stroke-width:39.3701; stroke-opacity:1; 
stroke-linecap:round; stroke-linejoin:round;">
</g>
<g style="fill:#000000; fill-opacity:0.0; 
stroke:#000000; stroke-width:59.0551; stroke-opacity:1; 
stroke-linecap:round; stroke-linejoin:round;">
<path d="M112992 23622
L112205 23622
" />
</g>
<g style="fill:#000000; fill-opacity:0.0; 
stroke:#000000; stroke-width:39.3701; stroke-opacity:1; 
stroke-linecap:round; stroke-linejoin:round;">
</g>
<g style="fill:#000000; fill-opacity:0.0; 
stroke:#000000; stroke-width:59.0551; stroke-opacity:1; 
stroke-linecap:round; stroke-linejoin:round;">
<path d="M112992 43307
L112205 43307
" />
</g>
<g style="fill:#000000; fill-opacity:0.0; 
stroke:#000000; stroke-width:39.3701; stroke-opacity:1; 
stroke-linecap:round; stroke-linejoin:round;">
</g>
<g style="fill:#000000; fill-opacity:0.0; 
stroke:#000000; stroke-width:59.0551; stroke-opacity:1; 
stroke-linecap:round; stroke-linejoin:round;">
<path d="M112992 62992
L112205 62992
" />
</g>
<g style="fill:#000000; fill-opacity:0.0; 
stroke:#000000; stroke-width:39.3701; stroke-opacity:1; 
stroke-linecap:round; stroke-linejoin:round;">
</g>
<g style="fill:#000000; fill-opacity:0.0; 
stroke:#000000; stroke-width:59.0551; stroke-opacity:1; 
stroke-linecap:round; stroke-linejoin:round;">
<text x="112599" y="14035.4"
textLength="497.75" font-size="682.415" lengthAdjust="spacingAndGlyphs"
text-anchor="middle" opacity="0">A</text>
<path d="M112477 13864
L112721 13864
" />
<path d="M112428 14011
L112599 13499
L112769 14011
" />
</g>
<g style="fill:#000000; fill-opacity:0.0; 
stroke:#000000; stroke-width:39.3701; stroke-opacity:1; 
stroke-linecap:round; stroke-linejoin:round;">
</g>
<g style="fill:#000000; fill-opacity:0.0; 
stroke:#000000; stroke-width:59.0551; stroke-opacity:1; 
stroke-linecap:round; stroke-linejoin:round;">
<text x="112599" y="33720.5"
textLength="570.866" font-size="682.415" lengthAdjust="spacingAndGlyphs"
text-anchor="middle" opacity="0">B</text>
<path d="M112635 33428
L112708 33452
L112733 33476
L112757 33525
L112757 33598
L112733 33647
L112708 33671
L112660 33696
L112465 33696
L112465 33184
L112635 33184
L112684 33208
L112708 33233
L112733 33281
L112733 33330
L112708 33379
L112684 33403
L112635 33428
L112465 33428
" />
</g>
<g style="fill:#000000; fill-opacity:0.0; 
stroke:#000000; stroke-width:39.3701; stroke-opacity:1; 
stroke-linecap:round; stroke-linejoin:round;">
</g>
<g style="fill:#000000; fill-opacity:0.0; 
stroke:#000000; stroke-width:59.0551; stroke-opacity:1; 
stroke-linecap:round; stroke-linejoin:round;">
<text x="112599" y="53405.5"
textLength="570.866" font-size="682.415" lengthAdjust="spacingAndGlyphs"
text-anchor="middle" opacity="0">C</text>
<path d="M112757 53332
L112733 53356
L112660 53381
L112611 53381
L112538 53356
L112489 53308
L112465 53259
L112440 53161
L112440 53088
L112465 52991
L112489 52942
L112538 52893
L112611 52869
L112660 52869
L112733 52893
L112757 52918
" />
</g>
<g style="fill:#000000; fill-opacity:0.0; 
stroke:#000000; stroke-width:39.3701; stroke-opacity:1; 
stroke-linecap:round; stroke-linejoin:round;">
</g>
<g style="fill:#000000; fill-opacity:0.0; 
stroke:#000000; stroke-width:59.0551; stroke-opacity:1; 
stroke-linecap:round; stroke-linejoin:round;">
<text x="112599" y="73090.6"
textLength="570.866" font-size="682.415" lengthAdjust="spacingAndGlyphs"
text-anchor="middle" opacity="0">D</text>
<path d="M112465 73066
L112465 72554
L112587 72554
L112660 72578
L112708 72627
L112733 72676
L112757 72773
L112757 72846
L112733 72944
L112708 72993
L112660 73041
L112587 73066
L112465 73066
" />
</g>
<g style="fill:#000000; fill-opacity:0.0; 
stroke:#000000; stroke-width:39.3701; stroke-opacity:1; 
stroke-linecap:round; stroke-linejoin:round;">
</g>
<g style="fill:#000000; fill-opacity:0.0; 
stroke:#000000; stroke-width:59.0551; stroke-opacity:1; 
stroke-linecap:round; stroke-linejoin:round;">
<text x="78741" y="76321.7"
textLength="2758.72" font-size="787.402" lengthAdjust="spacingAndGlyphs"
text-anchor="start" opacity="0">Date: </text>
<path d="M78911 76293
L78911 75703
L79051 75703
L79136 75731
L79192 75787
L79220 75843
L79248 75956
L79248 76040
L79220 76153
L79192 76209
L79136 76265
L79051 76293
L78911 76293
" />
<path d="M79754 76293
L79754 75984
L79726 75928
L79670 75899
L79557 75899
L79501 75928
" />
<path d="M79754 76265
L79698 76293
L79557 76293
L79501 76265
L79473 76209
L79473 76153
L79501 76096
L79557 76068
L79698 76068
L79754 76040
" />
<path d="M79951 75899
L80176 75899
" />
<path d="M80036 75703
L80036 76209
L80064 76265
L80120 76293
L80176 76293
" />
<path d="M80598 76265
L80542 76293
L80429 76293
L80373 76265
L80345 76209
L80345 75984
L80373 75928
L80429 75899
L80542 75899
L80598 75928
L80626 75984
L80626 76040
L80345 76096
" />
<path d="M80879 76237
L80907 76265
L80879 76293
L80851 76265
L80879 76237
L80879 76293
" />
<path d="M80879 75928
L80907 75956
L80879 75984
L80851 75956
L80879 75928
L80879 75984
" />
</g>
<g style="fill:#000000; fill-opacity:0.0; 
stroke:#000000; stroke-width:39.3701; stroke-opacity:1; 
stroke-linecap:round; stroke-linejoin:round;">
</g>
<g style="fill:#000000; fill-opacity:0.0; 
stroke:#000000; stroke-width:59.0551; stroke-opacity:1; 
stroke-linecap:round; stroke-linejoin:round;">
<path d="M69685 76577
L112205 76577
" />
</g>
<g style="fill:#000000; fill-opacity:0.0; 
stroke:#000000; stroke-width:39.3701; stroke-opacity:1; 
stroke-linecap:round; stroke-linejoin:round;">
</g>
<g style="fill:#000000; fill-opacity:0.0; 
stroke:#000000; stroke-width:59.0551; stroke-opacity:1; 
stroke-linecap:round; stroke-linejoin:round;">
<text x="70079.6" y="77424.1"
textLength="13529.2" font-size="787.402" lengthAdjust="spacingAndGlyphs"
text-anchor="start" opacity="0">KiCad E.D.A.  kicad (5.1.7)-1</text>
<path d="M70249 77395
L70249 76805
" />
<path d="M70587 77395
L70334 77058
" />
<path d="M70587 76805
L70249 77142
" />
<path d="M70840 77395
L70840 77002
" />
<path d="M70840 76805
L70812 76833
L70840 76861
L70868 76833
L70840 76805
L70840 76861
" />
<path d="M71458 77339
L71430 77367
L71346 77395
L71290 77395
L71205 77367
L71149 77311
L71121 77255
L71093 77142
L71093 77058
L71121 76946
L71149 76889
L71205 76833
L71290 76805
L71346 76805
L71430 76833
L71458 76861
" />
<path d="M71965 77395
L71965 77086
L71937 77030
L71880 77002
L71768 77002
L71712 77030
" />
<path d="M71965 77367
L71908 77395
L71768 77395
L71712 77367
L71683 77311
L71683 77255
L71712 77199
L71768 77171
L71908 77171
L71965 77142
" />
<path d="M72499 77395
L72499 76805
" />
<path d="M72499 77367
L72443 77395
L72330 77395
L72274 77367
L72246 77339
L72218 77283
L72218 77114
L72246 77058
L72274 77030
L72330 77002
L72443 77002
L72499 77030
" />
<path d="M73230 77086
L73427 77086
" />
<path d="M73511 77395
L73230 77395
L73230 76805
L73511 76805
" />
<path d="M73764 77339
L73793 77367
L73764 77395
L73736 77367
L73764 77339
L73764 77395
" />
<path d="M74046 77395
L74046 76805
L74186 76805
L74271 76833
L74327 76889
L74355 76946
L74383 77058
L74383 77142
L74355 77255
L74327 77311
L74271 77367
L74186 77395
L74046 77395
" />
<path d="M74636 77339
L74664 77367
L74636 77395
L74608 77367
L74636 77339
L74636 77395
" />
<path d="M74889 77227
L75171 77227
" />
<path d="M74833 77395
L75030 76805
L75227 77395
" />
<path d="M75424 77339
L75452 77367
L75424 77395
L75395 77367
L75424 77339
L75424 77395
" />
<path d="M76605 77395
L76605 76805
" />
<path d="M76661 77171
L76830 77395
" />
<path d="M76830 77002
L76605 77227
" />
<path d="M77083 77395
L77083 77002
" />
<path d="M77083 76805
L77055 76833
L77083 76861
L77111 76833
L77083 76805
L77083 76861
" />
<path d="M77617 77367
L77561 77395
L77448 77395
L77392 77367
L77364 77339
L77336 77283
L77336 77114
L77364 77058
L77392 77030
L77448 77002
L77561 77002
L77617 77030
" />
<path d="M78123 77395
L78123 77086
L78095 77030
L78039 77002
L77926 77002
L77870 77030
" />
<path d="M78123 77367
L78067 77395
L77926 77395
L77870 77367
L77842 77311
L77842 77255
L77870 77199
L77926 77171
L78067 77171
L78123 77142
" />
<path d="M78658 77395
L78658 76805
" />
<path d="M78658 77367
L78601 77395
L78489 77395
L78433 77367
L78404 77339
L78376 77283
L78376 77114
L78404 77058
L78433 77030
L78489 77002
L78601 77002
L78658 77030
" />
<path d="M79557 77620
L79529 77592
L79473 77508
L79445 77452
L79417 77367
L79389 77227
L79389 77114
L79417 76974
L79445 76889
L79473 76833
L79529 76749
L79557 76721
" />
<path d="M80064 76805
L79782 76805
L79754 77086
L79782 77058
L79839 77030
L79979 77030
L80036 77058
L80064 77086
L80092 77142
L80092 77283
L80064 77339
L80036 77367
L79979 77395
L79839 77395
L79782 77367
L79754 77339
" />
<path d="M80345 77339
L80373 77367
L80345 77395
L80317 77367
L80345 77339
L80345 77395
" />
<path d="M80935 77395
L80598 77395
" />
<path d="M80767 77395
L80767 76805
L80710 76889
L80654 76946
L80598 76974
" />
<path d="M81188 77339
L81217 77367
L81188 77395
L81160 77367
L81188 77339
L81188 77395
" />
<path d="M81413 76805
L81807 76805
L81554 77395
" />
<path d="M81976 77620
L82004 77592
L82060 77508
L82088 77452
L82117 77367
L82145 77227
L82145 77114
L82117 76974
L82088 76889
L82060 76833
L82004 76749
L81976 76721
" />
<path d="M82426 77171
L82876 77171
" />
<path d="M83466 77395
L83129 77395
" />
<path d="M83298 77395
L83298 76805
L83241 76889
L83185 76946
L83129 76974
" />
</g>
<g style="fill:#000000; fill-opacity:0.0; 
stroke:#000000; stroke-width:39.3701; stroke-opacity:1; 
stroke-linecap:round; stroke-linejoin:round;">
</g>
<g style="fill:#000000; fill-opacity:0.0; 
stroke:#000000; stroke-width:59.0551; stroke-opacity:1; 
stroke-linecap:round; stroke-linejoin:round;">
<path d="M69685 75396
L112205 75396
" />
</g>
<g style="fill:#000000; fill-opacity:0.0; 
stroke:#000000; stroke-width:39.3701; stroke-opacity:1; 
stroke-linecap:round; stroke-linejoin:round;">
</g>
<g style="fill:#000000; fill-opacity:0.0; 
stroke:#000000; stroke-width:118.11; stroke-opacity:1; 
stroke-linecap:round; stroke-linejoin:round;">
<text x="103544" y="76321.7"
textLength="2336.9" font-size="787.402" lengthAdjust="spacingAndGlyphs"
text-anchor="start" opacity="0">Rev: </text>
<path d="M104099 76293
L103902 76012
" />
<path d="M103761 76293
L103761 75703
L103986 75703
L104042 75731
L104070 75759
L104099 75815
L104099 75899
L104070 75956
L104042 75984
L103986 76012
L103761 76012
" />
<path d="M104577 76265
L104520 76293
L104408 76293
L104352 76265
L104323 76209
L104323 75984
L104352 75928
L104408 75899
L104520 75899
L104577 75928
L104605 75984
L104605 76040
L104323 76096
" />
<path d="M104802 75899
L104942 76293
L105083 75899
" />
<path d="M105308 76237
L105336 76265
L105308 76293
L105280 76265
L105308 76237
L105308 76293
" />
<path d="M105308 75928
L105336 75956
L105308 75984
L105280 75956
L105308 75928
L105308 75984
" />
</g>
<g style="fill:#000000; fill-opacity:0.0; 
stroke:#000000; stroke-width:39.3701; stroke-opacity:1; 
stroke-linecap:round; stroke-linejoin:round;">
</g>
<g style="fill:#000000; fill-opacity:0.0; 
stroke:#000000; stroke-width:59.0551; stroke-opacity:1; 
stroke-linecap:round; stroke-linejoin:round;">
<text x="70079.6" y="76321.7"
textLength="3781.21" font-size="787.402" lengthAdjust="spacingAndGlyphs"
text-anchor="start" opacity="0">Size: A4</text>
<path d="M70221 76265
L70305 76293
L70446 76293
L70502 76265
L70530 76237
L70559 76181
L70559 76124
L70530 76068
L70502 76040
L70446 76012
L70334 75984
L70277 75956
L70249 75928
L70221 75871
L70221 75815
L70249 75759
L70277 75731
L70334 75703
L70474 75703
L70559 75731
" />
<path d="M70812 76293
L70812 75899
" />
<path d="M70812 75703
L70784 75731
L70812 75759
L70840 75731
L70812 75703
L70812 75759
" />
<path d="M71037 75899
L71346 75899
L71037 76293
L71346 76293
" />
<path d="M71796 76265
L71740 76293
L71627 76293
L71571 76265
L71543 76209
L71543 75984
L71571 75928
L71627 75899
L71740 75899
L71796 75928
L71824 75984
L71824 76040
L71543 76096
" />
<path d="M72077 76237
L72105 76265
L72077 76293
L72049 76265
L72077 76237
L72077 76293
" />
<path d="M72077 75928
L72105 75956
L72077 75984
L72049 75956
L72077 75928
L72077 75984
" />
<path d="M72780 76124
L73061 76124
" />
<path d="M72724 76293
L72921 75703
L73118 76293
" />
<path d="M73568 75899
L73568 76293
" />
<path d="M73427 75674
L73286 76096
L73652 76096
" />
</g>
<g style="fill:#000000; fill-opacity:0.0; 
stroke:#000000; stroke-width:39.3701; stroke-opacity:1; 
stroke-linecap:round; stroke-linejoin:round;">
</g>
<g style="fill:#000000; fill-opacity:0.0; 
stroke:#000000; stroke-width:59.0551; stroke-opacity:1; 
stroke-linecap:round; stroke-linejoin:round;">
<text x="103544" y="77424.1"
textLength="3349.27" font-size="787.402" lengthAdjust="spacingAndGlyphs"
text-anchor="start" opacity="0">Id: 1/1</text>
<path d="M103714 77395
L103714 76805
" />
<path d="M104248 77395
L104248 76805
" />
<path d="M104248 77367
L104192 77395
L104079 77395
L104023 77367
L103995 77339
L103967 77283
L103967 77114
L103995 77058
L104023 77030
L104079 77002
L104192 77002
L104248 77030
" />
<path d="M104529 77339
L104557 77367
L104529 77395
L104501 77367
L104529 77339
L104529 77395
" />
<path d="M104529 77030
L104557 77058
L104529 77086
L104501 77058
L104529 77030
L104529 77086
" />
<path d="M105570 77395
L105232 77395
" />
<path d="M105401 77395
L105401 76805
L105345 76889
L105289 76946
L105232 76974
" />
<path d="M106245 76777
L105739 77536
" />
<path d="M106751 77395
L106413 77395
" />
<path d="M106582 77395
L106582 76805
L106526 76889
L106470 76946
L106413 76974
" />
</g>
<g style="fill:#000000; fill-opacity:0.0; 
stroke:#000000; stroke-width:39.3701; stroke-opacity:1; 
stroke-linecap:round; stroke-linejoin:round;">
</g>
<g style="fill:#000000; fill-opacity:0.0; 
stroke:#000000; stroke-width:59.0551; stroke-opacity:1; 
stroke-linecap:round; stroke-linejoin:round;">
<path d="M69685 73821
L112205 73821
" />
</g>
<g style="fill:#000000; fill-opacity:0.0; 
stroke:#000000; stroke-width:39.3701; stroke-opacity:1; 
stroke-linecap:round; stroke-linejoin:round;">
</g>
<g style="fill:#000000; fill-opacity:0.0; 
stroke:#000000; stroke-width:157.48; stroke-opacity:1; 
stroke-linecap:round; stroke-linejoin:round;">
<text x="70079.6" y="74924.1"
textLength="3701.14" font-size="1049.87" lengthAdjust="spacingAndGlyphs"
text-anchor="start" opacity="0">Title: </text>
<path d="M70360 74099
L70810 74099
" />
<path d="M70486 74886
L70585 74099
" />
<path d="M70974 74886
L71039 74361
" />
<path d="M71072 74099
L71030 74136
L71063 74174
L71105 74136
L71072 74099
L71063 74174
" />
<path d="M71302 74361
L71602 74361
" />
<path d="M71447 74099
L71363 74774
L71391 74849
L71461 74886
L71536 74886
" />
<path d="M71911 74886
L71841 74849
L71813 74774
L71897 74099
" />
<path d="M72516 74849
L72436 74886
L72286 74886
L72216 74849
L72187 74774
L72225 74474
L72272 74399
L72352 74361
L72501 74361
L72572 74399
L72600 74474
L72591 74549
L72206 74624
" />
<path d="M72895 74811
L72928 74849
L72886 74886
L72853 74849
L72895 74811
L72886 74886
" />
<path d="M72947 74399
L72980 74436
L72937 74474
L72905 74436
L72947 74399
L72937 74474
" />
</g>
<g style="fill:#000000; fill-opacity:0.0; 
stroke:#000000; stroke-width:39.3701; stroke-opacity:1; 
stroke-linecap:round; stroke-linejoin:round;">
</g>
<g style="fill:#000000; fill-opacity:0.0; 
stroke:#000000; stroke-width:59.0551; stroke-opacity:1; 
stroke-linecap:round; stroke-linejoin:round;">
<text x="70079.6" y="73408.3"
textLength="15699.7" font-size="787.402" lengthAdjust="spacingAndGlyphs"
text-anchor="start" opacity="0">File: Two_transistor_AMP.kicad_pcb</text>
<path d="M70446 73070
L70249 73070
" />
<path d="M70249 73380
L70249 72789
L70530 72789
" />
<path d="M70755 73380
L70755 72986
" />
<path d="M70755 72789
L70727 72817
L70755 72845
L70784 72817
L70755 72789
L70755 72845
" />
<path d="M71121 73380
L71065 73352
L71037 73295
L71037 72789
" />
<path d="M71571 73352
L71515 73380
L71402 73380
L71346 73352
L71318 73295
L71318 73070
L71346 73014
L71402 72986
L71515 72986
L71571 73014
L71599 73070
L71599 73127
L71318 73183
" />
<path d="M71852 73323
L71880 73352
L71852 73380
L71824 73352
L71852 73323
L71852 73380
" />
<path d="M71852 73014
L71880 73042
L71852 73070
L71824 73042
L71852 73014
L71852 73070
" />
<path d="M72499 72789
L72836 72789
" />
<path d="M72668 73380
L72668 72789
" />
<path d="M72977 72986
L73090 73380
L73202 73099
L73314 73380
L73427 72986
" />
<path d="M73736 73380
L73680 73352
L73652 73323
L73624 73267
L73624 73099
L73652 73042
L73680 73014
L73736 72986
L73821 72986
L73877 73014
L73905 73042
L73933 73099
L73933 73267
L73905 73323
L73877 73352
L73821 73380
L73736 73380
" />
<path d="M74046 73436
L74496 73436
" />
<path d="M74552 72986
L74777 72986
" />
<path d="M74636 72789
L74636 73295
L74664 73352
L74721 73380
L74777 73380
" />
<path d="M74974 73380
L74974 72986
" />
<path d="M74974 73099
L75002 73042
L75030 73014
L75086 72986
L75142 72986
" />
<path d="M75592 73380
L75592 73070
L75564 73014
L75508 72986
L75395 72986
L75339 73014
" />
<path d="M75592 73352
L75536 73380
L75395 73380
L75339 73352
L75311 73295
L75311 73239
L75339 73183
L75395 73155
L75536 73155
L75592 73127
" />
<path d="M75874 72986
L75874 73380
" />
<path d="M75874 73042
L75902 73014
L75958 72986
L76042 72986
L76099 73014
L76127 73070
L76127 73380
" />
<path d="M76380 73352
L76436 73380
L76548 73380
L76605 73352
L76633 73295
L76633 73267
L76605 73211
L76548 73183
L76464 73183
L76408 73155
L76380 73099
L76380 73070
L76408 73014
L76464 72986
L76548 72986
L76605 73014
" />
<path d="M76886 73380
L76886 72986
" />
<path d="M76886 72789
L76858 72817
L76886 72845
L76914 72817
L76886 72789
L76886 72845
" />
<path d="M77139 73352
L77195 73380
L77308 73380
L77364 73352
L77392 73295
L77392 73267
L77364 73211
L77308 73183
L77223 73183
L77167 73155
L77139 73099
L77139 73070
L77167 73014
L77223 72986
L77308 72986
L77364 73014
" />
<path d="M77561 72986
L77786 72986
" />
<path d="M77645 72789
L77645 73295
L77673 73352
L77730 73380
L77786 73380
" />
<path d="M78067 73380
L78011 73352
L77983 73323
L77955 73267
L77955 73099
L77983 73042
L78011 73014
L78067 72986
L78151 72986
L78208 73014
L78236 73042
L78264 73099
L78264 73267
L78236 73323
L78208 73352
L78151 73380
L78067 73380
" />
<path d="M78517 73380
L78517 72986
" />
<path d="M78517 73099
L78545 73042
L78573 73014
L78629 72986
L78686 72986
" />
<path d="M78742 73436
L79192 73436
" />
<path d="M79304 73211
L79586 73211
" />
<path d="M79248 73380
L79445 72789
L79642 73380
" />
<path d="M79839 73380
L79839 72789
L80036 73211
L80232 72789
L80232 73380
" />
<path d="M80514 73380
L80514 72789
L80739 72789
L80795 72817
L80823 72845
L80851 72902
L80851 72986
L80823 73042
L80795 73070
L80739 73099
L80514 73099
" />
<path d="M81104 73323
L81132 73352
L81104 73380
L81076 73352
L81104 73323
L81104 73380
" />
<path d="M81385 73380
L81385 72789
" />
<path d="M81442 73155
L81610 73380
" />
<path d="M81610 72986
L81385 73211
" />
<path d="M81863 73380
L81863 72986
" />
<path d="M81863 72789
L81835 72817
L81863 72845
L81892 72817
L81863 72789
L81863 72845
" />
<path d="M82398 73352
L82341 73380
L82229 73380
L82173 73352
L82145 73323
L82117 73267
L82117 73099
L82145 73042
L82173 73014
L82229 72986
L82341 72986
L82398 73014
" />
<path d="M82904 73380
L82904 73070
L82876 73014
L82820 72986
L82707 72986
L82651 73014
" />
<path d="M82904 73352
L82848 73380
L82707 73380
L82651 73352
L82623 73295
L82623 73239
L82651 73183
L82707 73155
L82848 73155
L82904 73127
" />
<path d="M83438 73380
L83438 72789
" />
<path d="M83438 73352
L83382 73380
L83269 73380
L83213 73352
L83185 73323
L83157 73267
L83157 73099
L83185 73042
L83213 73014
L83269 72986
L83382 72986
L83438 73014
" />
<path d="M83579 73436
L84029 73436
" />
<path d="M84169 72986
L84169 73577
" />
<path d="M84169 73014
L84226 72986
L84338 72986
L84394 73014
L84422 73042
L84451 73099
L84451 73267
L84422 73323
L84394 73352
L84338 73380
L84226 73380
L84169 73352
" />
<path d="M84957 73352
L84901 73380
L84788 73380
L84732 73352
L84704 73323
L84676 73267
L84676 73099
L84704 73042
L84732 73014
L84788 72986
L84901 72986
L84957 73014
" />
<path d="M85210 73380
L85210 72789
" />
<path d="M85210 73014
L85266 72986
L85379 72986
L85435 73014
L85463 73042
L85491 73099
L85491 73267
L85463 73323
L85435 73352
L85379 73380
L85266 73380
L85210 73352
" />
</g>
<g style="fill:#000000; fill-opacity:0.0; 
stroke:#000000; stroke-width:39.3701; stroke-opacity:1; 
stroke-linecap:round; stroke-linejoin:round;">
</g>
<g style="fill:#000000; fill-opacity:0.0; 
stroke:#000000; stroke-width:59.0551; stroke-opacity:1; 
stroke-linecap:round; stroke-linejoin:round;">
<path d="M69685 71459
L112205 71459
" />
</g>
<g style="fill:#000000; fill-opacity:0.0; 
stroke:#000000; stroke-width:39.3701; stroke-opacity:1; 
stroke-linecap:round; stroke-linejoin:round;">
</g>
<g style="fill:#000000; fill-opacity:0.0; 
stroke:#000000; stroke-width:59.0551; stroke-opacity:1; 
stroke-linecap:round; stroke-linejoin:round;">
<text x="70079.6" y="72345.4"
textLength="3236.78" font-size="787.402" lengthAdjust="spacingAndGlyphs"
text-anchor="start" opacity="0">Sheet: </text>
<path d="M70221 72289
L70305 72317
L70446 72317
L70502 72289
L70530 72260
L70559 72204
L70559 72148
L70530 72092
L70502 72064
L70446 72036
L70334 72007
L70277 71979
L70249 71951
L70221 71895
L70221 71839
L70249 71782
L70277 71754
L70334 71726
L70474 71726
L70559 71754
" />
<path d="M70812 72317
L70812 71726
" />
<path d="M71065 72317
L71065 72007
L71037 71951
L70980 71923
L70896 71923
L70840 71951
L70812 71979
" />
<path d="M71571 72289
L71515 72317
L71402 72317
L71346 72289
L71318 72232
L71318 72007
L71346 71951
L71402 71923
L71515 71923
L71571 71951
L71599 72007
L71599 72064
L71318 72120
" />
<path d="M72077 72289
L72021 72317
L71908 72317
L71852 72289
L71824 72232
L71824 72007
L71852 71951
L71908 71923
L72021 71923
L72077 71951
L72105 72007
L72105 72064
L71824 72120
" />
<path d="M72274 71923
L72499 71923
" />
<path d="M72358 71726
L72358 72232
L72386 72289
L72443 72317
L72499 72317
" />
<path d="M72696 72260
L72724 72289
L72696 72317
L72668 72289
L72696 72260
L72696 72317
" />
<path d="M72696 71951
L72724 71979
L72696 72007
L72668 71979
L72696 71951
L72696 72007
" />
</g>
<g style="fill:#000000; fill-opacity:0.0; 
stroke:#000000; stroke-width:39.3701; stroke-opacity:1; 
stroke-linecap:round; stroke-linejoin:round;">
</g>
<g style="fill:#000000; fill-opacity:0.0; 
stroke:#000000; stroke-width:59.0551; stroke-opacity:1; 
stroke-linecap:round; stroke-linejoin:round;">
<path d="M77559 75396
L77559 76577
" />
</g>
<g style="fill:#000000; fill-opacity:0.0; 
stroke:#000000; stroke-width:39.3701; stroke-opacity:1; 
stroke-linecap:round; stroke-linejoin:round;">
</g>
<g style="fill:#000000; fill-opacity:0.0; 
stroke:#000000; stroke-width:59.0551; stroke-opacity:1; 
stroke-linecap:round; stroke-linejoin:round;">
<path d="M102756 75396
L102756 77955
" />
<g >
</g>
<g style="fill:#848400; fill-opacity:0.0; 
stroke:#848400; stroke-width:59.0551; stroke-opacity:1; 
stroke-linecap:round; stroke-linejoin:round;">
</g>
<g style="fill:#848400; fill-opacity:1.0; 
stroke:#848400; stroke-width:0; stroke-opacity:1; 
stroke-linecap:round; stroke-linejoin:round;">
<circle cx="61400" cy="38200" r="275.591" /> 
</g>
<g style="fill:#848400; fill-opacity:1.0; 
stroke:#848400; stroke-width:39.3701; stroke-opacity:1; 
stroke-linecap:round; stroke-linejoin:round;">
</g>
<g style="fill:#848400; fill-opacity:1.0; 
stroke:#848400; stroke-width:0; stroke-opacity:1; 
stroke-linecap:round; stroke-linejoin:round;">
<circle cx="61400" cy="40200" r="275.591" /> 
</g>
<g >
</g>
<g style="fill:#848400; fill-opacity:1.0; 
stroke:#848400; stroke-width:0; stroke-opacity:1; 
stroke-linecap:round; stroke-linejoin:round;">
<circle cx="67868.5" cy="33300" r="393.701" /> 
</g>
<g style="fill:#848400; fill-opacity:1.0; 
stroke:#848400; stroke-width:39.3701; stroke-opacity:1; 
stroke-linecap:round; stroke-linejoin:round;">
</g>
<g style="fill:#848400; fill-opacity:1.0; 
stroke:#848400; stroke-width:0; stroke-opacity:1; 
stroke-linecap:round; stroke-linejoin:round;">
<path style="fill:#848400; fill-opacity:1.0; 
stroke:#848400; stroke-width:0; stroke-opacity:1; 
stroke-linecap:round; stroke-linejoin:round;fill-rule:evenodd;"
d="M 65506.3,33693.7
65506.3,32906.3
66293.7,32906.3
66293.7,33693.7
Z" /> 
</g>
<g >
</g>
<g style="fill:#848400; fill-opacity:1.0; 
stroke:#848400; stroke-width:0; stroke-opacity:1; 
stroke-linecap:round; stroke-linejoin:round;">
<circle cx="63700" cy="40200" r="275.591" /> 
<circle cx="63700" cy="38200" r="275.591" /> 
</g>
<g style="fill:#848400; fill-opacity:1.0; 
stroke:#848400; stroke-width:39.3701; stroke-opacity:1; 
stroke-linecap:round; stroke-linejoin:round;">
</g>
<g >
</g>
<g style="fill:#848400; fill-opacity:1.0; 
stroke:#848400; stroke-width:39.3701; stroke-opacity:1; 
stroke-linecap:round; stroke-linejoin:round;">
</g>
<g style="fill:#848400; fill-opacity:1.0; 
stroke:#848400; stroke-width:0; stroke-opacity:1; 
stroke-linecap:round; stroke-linejoin:round;">
<circle cx="66900" cy="37331.5" r="393.701" /> 
</g>
<g style="fill:#848400; fill-opacity:1.0; 
stroke:#848400; stroke-width:39.3701; stroke-opacity:1; 
stroke-linecap:round; stroke-linejoin:round;">
</g>
<g style="fill:#848400; fill-opacity:1.0; 
stroke:#848400; stroke-width:0; stroke-opacity:1; 
stroke-linecap:round; stroke-linejoin:round;">
<path style="fill:#848400; fill-opacity:1.0; 
stroke:#848400; stroke-width:0; stroke-opacity:1; 
stroke-linecap:round; stroke-linejoin:round;fill-rule:evenodd;"
d="M 67293.7,39693.7
66506.3,39693.7
66506.3,38906.3
67293.7,38906.3
Z" /> 
</g>
<g >
</g>
<g style="fill:#848400; fill-opacity:1.0; 
stroke:#848400; stroke-width:0; stroke-opacity:1; 
stroke-linecap:round; stroke-linejoin:round;">
<circle cx="59700" cy="35100" r="275.591" /> 
<circle cx="59700" cy="37100" r="275.591" /> 
</g>
<g style="fill:#848400; fill-opacity:1.0; 
stroke:#848400; stroke-width:39.3701; stroke-opacity:1; 
stroke-linecap:round; stroke-linejoin:round;">
</g>
<g >
</g>
<g style="fill:#848400; fill-opacity:1.0; 
stroke:#848400; stroke-width:39.3701; stroke-opacity:1; 
stroke-linecap:round; stroke-linejoin:round;">
</g>
<g style="fill:#848400; fill-opacity:1.0; 
stroke:#848400; stroke-width:0; stroke-opacity:1; 
stroke-linecap:round; stroke-linejoin:round;">
<path style="fill:#848400; fill-opacity:1.0; 
stroke:#848400; stroke-width:0; stroke-opacity:1; 
stroke-linecap:round; stroke-linejoin:round;fill-rule:evenodd;"
d="M 59972.4,38627.6
59972.4,39572.4
59027.6,39572.4
59027.6,38627.6
Z" /> 
<circle cx="52413.4" cy="39100" r="472.441" /> 
</g>
<g >
</g>
<g style="fill:#848400; fill-opacity:1.0; 
stroke:#848400; stroke-width:0; stroke-opacity:1; 
stroke-linecap:round; stroke-linejoin:round;">
<path style="fill:#848400; fill-opacity:1.0; 
stroke:#848400; stroke-width:0; stroke-opacity:1; 
stroke-linecap:round; stroke-linejoin:round;fill-rule:evenodd;"
d="M 50193.7,32806.3
50193.7,33593.7
49406.3,33593.7
49406.3,32806.3
Z" /> 
<circle cx="47831.5" cy="33200" r="393.701" /> 
</g>
<g style="fill:#848400; fill-opacity:1.0; 
stroke:#848400; stroke-width:39.3701; stroke-opacity:1; 
stroke-linecap:round; stroke-linejoin:round;">
</g>
<g >
</g>
<g style="fill:#848400; fill-opacity:1.0; 
stroke:#848400; stroke-width:39.3701; stroke-opacity:1; 
stroke-linecap:round; stroke-linejoin:round;">
</g>
<g style="fill:#848400; fill-opacity:1.0; 
stroke:#848400; stroke-width:0; stroke-opacity:1; 
stroke-linecap:round; stroke-linejoin:round;">
<circle cx="61400" cy="32700" r="590.551" /> 
</g>
<g style="fill:#848400; fill-opacity:1.0; 
stroke:#848400; stroke-width:39.3701; stroke-opacity:1; 
stroke-linecap:round; stroke-linejoin:round;">
</g>
<g style="fill:#848400; fill-opacity:1.0; 
stroke:#848400; stroke-width:0; stroke-opacity:1; 
stroke-linecap:round; stroke-linejoin:round;">
<path style="fill:#848400; fill-opacity:1.0; 
stroke:#848400; stroke-width:0; stroke-opacity:1; 
stroke-linecap:round; stroke-linejoin:round;fill-rule:evenodd;"
d="M 63990.6,32109.4
63990.6,33290.6
62809.4,33290.6
62809.4,32109.4
Z" /> 
</g>
<g >
</g>
<g style="fill:#848400; fill-opacity:1.0; 
stroke:#848400; stroke-width:0; stroke-opacity:1; 
stroke-linecap:round; stroke-linejoin:round;">
<path style="fill:#848400; fill-opacity:1.0; 
stroke:#848400; stroke-width:0; stroke-opacity:1; 
stroke-linecap:round; stroke-linejoin:round;fill-rule:evenodd;"
d="M 54990.6,32009.4
54990.6,33190.6
53809.4,33190.6
53809.4,32009.4
Z" /> 
<circle cx="52400" cy="32600" r="590.551" /> 
</g>
<g style="fill:#848400; fill-opacity:1.0; 
stroke:#848400; stroke-width:39.3701; stroke-opacity:1; 
stroke-linecap:round; stroke-linejoin:round;">
</g>
<g >
</g>
<g style="fill:#848400; fill-opacity:1.0; 
stroke:#848400; stroke-width:39.3701; stroke-opacity:1; 
stroke-linecap:round; stroke-linejoin:round;">
</g>
<g style="fill:#848400; fill-opacity:1.0; 
stroke:#848400; stroke-width:0; stroke-opacity:1; 
stroke-linecap:round; stroke-linejoin:round;">
<path style="fill:#848400; fill-opacity:1.0; 
stroke:#848400; stroke-width:0; stroke-opacity:1; 
stroke-linecap:round; stroke-linejoin:round;fill-rule:evenodd;"
d="M 59490.6,32009.4
59490.6,33190.6
58309.4,33190.6
58309.4,32009.4
Z" /> 
<circle cx="56900" cy="32600" r="590.551" /> 
</g>
<g style="fill:#848400; fill-opacity:1.0; 
stroke:#848400; stroke-width:39.3701; stroke-opacity:1; 
stroke-linecap:round; stroke-linejoin:round;">
</g>
<g >
</g>
<g style="fill:#848400; fill-opacity:1.0; 
stroke:#848400; stroke-width:39.3701; stroke-opacity:1; 
stroke-linecap:round; stroke-linejoin:round;">
</g>
<g style="fill:#848400; fill-opacity:1.0; 
stroke:#848400; stroke-width:413.386; stroke-opacity:1; 
stroke-linecap:round; stroke-linejoin:round;">
</g>
<g style="fill:#848400; fill-opacity:0.0; 
stroke:#848400; stroke-width:413.386; stroke-opacity:1; 
stroke-linecap:round; stroke-linejoin:round;">
<path d="M62388 36100
L62211 36100
" />
<path d="M62388 36600
L62211 36600
" />
</g>
<g style="fill:#848400; fill-opacity:0.0; 
stroke:#848400; stroke-width:0; stroke-opacity:1; 
stroke-linecap:round; stroke-linejoin:round;">
</g>
<g style="fill:#848400; fill-opacity:1.0; 
stroke:#848400; stroke-width:0; stroke-opacity:1; 
stroke-linecap:round; stroke-linejoin:round;">
<path style="fill:#848400; fill-opacity:1.0; 
stroke:#848400; stroke-width:0; stroke-opacity:1; 
stroke-linecap:round; stroke-linejoin:round;fill-rule:evenodd;"
d="M 62004.7,35393.3
62595.3,35393.3
62595.3,35806.7
62004.7,35806.7
Z" /> 
</g>
<g >
</g>
<g style="fill:#848400; fill-opacity:1.0; 
stroke:#848400; stroke-width:0; stroke-opacity:1; 
stroke-linecap:round; stroke-linejoin:round;">
<path style="fill:#848400; fill-opacity:1.0; 
stroke:#848400; stroke-width:0; stroke-opacity:1; 
stroke-linecap:round; stroke-linejoin:round;fill-rule:evenodd;"
d="M 57995.3,36806.7
57404.7,36806.7
57404.7,36393.3
57995.3,36393.3
Z" /> 
</g>
<g style="fill:#848400; fill-opacity:1.0; 
stroke:#848400; stroke-width:413.386; stroke-opacity:1; 
stroke-linecap:round; stroke-linejoin:round;">
</g>
<g style="fill:#848400; fill-opacity:0.0; 
stroke:#848400; stroke-width:413.386; stroke-opacity:1; 
stroke-linecap:round; stroke-linejoin:round;">
<path d="M57611 35600
L57788 35600
" />
<path d="M57611 36100
L57788 36100
" />
</g>
<g >
</g>
<g style="fill:#848400; fill-opacity:0.0; 
stroke:#848400; stroke-width:413.386; stroke-opacity:1; 
stroke-linecap:round; stroke-linejoin:round;">
</g>
<g style="fill:#848400; fill-opacity:1.0; 
stroke:#848400; stroke-width:0; stroke-opacity:1; 
stroke-linecap:round; stroke-linejoin:round;">
<circle cx="52400" cy="35000" r="275.591" /> 
</g>
<g style="fill:#848400; fill-opacity:1.0; 
stroke:#848400; stroke-width:39.3701; stroke-opacity:1; 
stroke-linecap:round; stroke-linejoin:round;">
</g>
<g style="fill:#848400; fill-opacity:1.0; 
stroke:#848400; stroke-width:0; stroke-opacity:1; 
stroke-linecap:round; stroke-linejoin:round;">
<circle cx="52400" cy="37000" r="275.591" /> 
</g>
<g >
</g>
<g style="fill:#848400; fill-opacity:1.0; 
stroke:#848400; stroke-width:0; stroke-opacity:1; 
stroke-linecap:round; stroke-linejoin:round;">
<circle cx="54300" cy="35000" r="275.591" /> 
</g>
<g style="fill:#848400; fill-opacity:1.0; 
stroke:#848400; stroke-width:39.3701; stroke-opacity:1; 
stroke-linecap:round; stroke-linejoin:round;">
</g>
<g style="fill:#848400; fill-opacity:1.0; 
stroke:#848400; stroke-width:0; stroke-opacity:1; 
stroke-linecap:round; stroke-linejoin:round;">
<circle cx="54300" cy="37000" r="275.591" /> 
</g>
<g >
</g>
<g style="fill:#848400; fill-opacity:1.0; 
stroke:#848400; stroke-width:0; stroke-opacity:1; 
stroke-linecap:round; stroke-linejoin:round;">
<path style="fill:#848400; fill-opacity:1.0; 
stroke:#848400; stroke-width:0; stroke-opacity:1; 
stroke-linecap:round; stroke-linejoin:round;fill-rule:evenodd;"
d="M 50293.7,37906.3
50293.7,38693.7
49506.3,38693.7
49506.3,37906.3
Z" /> 
<circle cx="47931.5" cy="38300" r="393.701" /> 
</g>
<g style="fill:#848400; fill-opacity:1.0; 
stroke:#848400; stroke-width:39.3701; stroke-opacity:1; 
stroke-linecap:round; stroke-linejoin:round;">
</g>
<g >
</g>
<g >
</g>
<g >
</g>
<g style="fill:#840000; fill-opacity:1.0; 
stroke:#840000; stroke-width:39.3701; stroke-opacity:1; 
stroke-linecap:round; stroke-linejoin:round;">
<g >
</g>
<g style="fill:#840000; fill-opacity:1.0; 
stroke:#840000; stroke-width:100; stroke-opacity:1; 
stroke-linecap:round; stroke-linejoin:round;">
<path style="fill:#840000; fill-opacity:1.0; 
stroke:#840000; stroke-width:100; stroke-opacity:1; 
stroke-linecap:round; stroke-linejoin:round;fill-rule:evenodd;"
d="M 69340.2,41540.2
46459.8,41540.2
46459.8,40148.2
60874.4,40148.2
60874.4,40251.8
60894.6,40353.3
60934.2,40449
60991.7,40535
61065,40608.3
61151,40665.8
61246.7,40705.4
61348.2,40725.6
61451.8,40725.6
61553.3,40705.4
61649,40665.8
61735,40608.3
61808.3,40535
61865.8,40449
61905.4,40353.3
61909.8,40331.2
63191.1,40331.2
63226.4,40428
63280,40516
63349.7,40591.9
63432.9,40652.7
63526.4,40696.1
63568.8,40708.9
63650,40660.4
63650,40250
63750,40250
63750,40660.4
63831.2,40708.9
63873.6,40696.1
63967.1,40652.7
64050.3,40591.9
64120,40516
64173.6,40428
64208.9,40331.2
64160.7,40250
63750,40250
63650,40250
63239.3,40250
63191.1,40331.2
61909.8,40331.2
61925.6,40251.8
61925.6,40148.2
61909.8,40068.8
63191.1,40068.8
63239.3,40150
63650,40150
63650,39739.6
63750,39739.6
63750,40150
64160.7,40150
64208.9,40068.8
64173.6,39972
64120,39884
64050.3,39808.1
63967.1,39747.3
63873.6,39703.9
63831.2,39691.1
63750,39739.6
63650,39739.6
63568.8,39691.1
63526.4,39703.9
63432.9,39747.3
63349.7,39808.1
63280,39884
63226.4,39972
63191.1,40068.8
61909.8,40068.8
61905.4,40046.7
61865.8,39951
61808.3,39865
61735,39791.7
61649,39734.2
61553.3,39694.6
61451.8,39674.4
61348.2,39674.4
61246.7,39694.6
61151,39734.2
61065,39791.7
60991.7,39865
60934.2,39951
60894.6,40046.7
60874.4,40148.2
46459.8,40148.2
46459.8,39028.8
51690.9,39028.8
51690.9,39171.2
51718.7,39310.7
51773.2,39442.2
51852.2,39560.5
51952.9,39661.2
52071.2,39740.2
52202.7,39794.7
52342.2,39822.4
52484.5,39822.4
52624.1,39794.7
52755.6,39740.2
52873.9,39661.2
52962.6,39572.4
58776.3,39572.4
58781.2,39621.4
58795.5,39668.6
58818.7,39712
58849.9,39750.1
58888,39781.3
58931.4,39804.5
58978.6,39818.8
59027.6,39823.7
59387.5,39822.4
59450,39759.9
59450,39150
59550,39150
59550,39759.9
59612.5,39822.4
59972.4,39823.7
60021.4,39818.8
60068.6,39804.5
60112,39781.3
60150.1,39750.1
60181.3,39712
60204.5,39668.6
60218.8,39621.4
60223.7,39572.4
60222.4,39212.5
60159.9,39150
59550,39150
59450,39150
58840.1,39150
58777.6,39212.5
58776.3,39572.4
52962.6,39572.4
52974.5,39560.5
53053.6,39442.2
53108.1,39310.7
53135.8,39171.2
53135.8,39028.8
53108.1,38889.3
53053.6,38757.8
52974.5,38639.5
52962.6,38627.6
58776.3,38627.6
58777.6,38987.5
58840.1,39050
59450,39050
59450,38440.1
59550,38440.1
59550,39050
60159.9,39050
60222.4,38987.5
60222.7,38906.3
66255.1,38906.3
66255.1,39693.7
66259.9,39742.7
66274.2,39789.8
66297.4,39833.3
66328.7,39871.3
66366.7,39902.6
66410.2,39925.8
66457.3,39940.1
66506.3,39944.9
67293.7,39944.9
67342.7,39940.1
67389.8,39925.8
67433.3,39902.6
67471.3,39871.3
67502.6,39833.3
67525.8,39789.8
67540.1,39742.7
67544.9,39693.7
67544.9,38906.3
67540.1,38857.3
67525.8,38810.2
67502.6,38766.7
67471.3,38728.7
67433.3,38697.4
67389.8,38674.2
67342.7,38659.9
67293.7,38655.1
66506.3,38655.1
66457.3,38659.9
66410.2,38674.2
66366.7,38697.4
66328.7,38728.7
66297.4,38766.7
66274.2,38810.2
66259.9,38857.3
66255.1,38906.3
60222.7,38906.3
60223.7,38627.6
60218.8,38578.6
60204.5,38531.4
60181.3,38488
60150.1,38449.9
60112,38418.7
60068.6,38395.5
60021.4,38381.2
59972.4,38376.3
59612.5,38377.6
59550,38440.1
59450,38440.1
59387.5,38377.6
59027.6,38376.3
58978.6,38381.2
58931.4,38395.5
58888,38418.7
58849.9,38449.9
58818.7,38488
58795.5,38531.4
58781.2,38578.6
58776.3,38627.6
52962.6,38627.6
52873.9,38538.8
52755.6,38459.8
52624.1,38405.3
52484.5,38377.6
52342.2,38377.6
52202.7,38405.3
52071.2,38459.8
51952.9,38538.8
51852.2,38639.5
51773.2,38757.8
51718.7,38889.3
51690.9,39028.8
46459.8,39028.8
46459.8,38236.6
47287.8,38236.6
47287.8,38363.4
47312.5,38487.8
47361.1,38604.9
47431.5,38710.3
47521.2,38800
47626.6,38870.4
47743.7,38919
47868.1,38943.7
47994.9,38943.7
48119.3,38919
48236.4,38870.4
48341.8,38800
48431.5,38710.3
48501.9,38604.9
48550.5,38487.8
48575.2,38363.4
48575.2,38236.6
48550.5,38112.2
48501.9,37995.1
48442.6,37906.3
49255.1,37906.3
49255.1,38693.7
49259.9,38742.7
49274.2,38789.8
49297.4,38833.3
49328.7,38871.3
49366.7,38902.6
49410.2,38925.8
49457.3,38940.1
49506.3,38944.9
50293.7,38944.9
50342.7,38940.1
50389.8,38925.8
50433.3,38902.6
50471.3,38871.3
50502.6,38833.3
50525.8,38789.8
50540.1,38742.7
50544.9,38693.7
50544.9,38148.2
60874.4,38148.2
60874.4,38251.8
60894.6,38353.3
60934.2,38449
60991.7,38535
61065,38608.3
61151,38665.8
61246.7,38705.4
61348.2,38725.6
61451.8,38725.6
61553.3,38705.4
61649,38665.8
61735,38608.3
61808.3,38535
61865.8,38449
61905.4,38353.3
61925.6,38251.8
61925.6,38148.2
63174.4,38148.2
63174.4,38251.8
63194.6,38353.3
63234.2,38449
63291.7,38535
63365,38608.3
63451,38665.8
63546.7,38705.4
63648.2,38725.6
63751.8,38725.6
63853.3,38705.4
63949,38665.8
64035,38608.3
64108.3,38535
64165.8,38449
64205.4,38353.3
64225.6,38251.8
64225.6,38148.2
64205.4,38046.7
64165.8,37951
64108.3,37865
64035,37791.7
63949,37734.2
63853.3,37694.6
63751.8,37674.4
63648.2,37674.4
63546.7,37694.6
63451,37734.2
63365,37791.7
63291.7,37865
63234.2,37951
63194.6,38046.7
63174.4,38148.2
61925.6,38148.2
61905.4,38046.7
61865.8,37951
61808.3,37865
61735,37791.7
61649,37734.2
61553.3,37694.6
61451.8,37674.4
61348.2,37674.4
61246.7,37694.6
61151,37734.2
61065,37791.7
60991.7,37865
60934.2,37951
60894.6,38046.7
60874.4,38148.2
50544.9,38148.2
50544.9,37906.3
50540.1,37857.3
50525.8,37810.2
50502.6,37766.7
50471.3,37728.7
50433.3,37697.4
50389.8,37674.2
50342.7,37659.9
50293.7,37655.1
49506.3,37655.1
49457.3,37659.9
49410.2,37674.2
49366.7,37697.4
49328.7,37728.7
49297.4,37766.7
49274.2,37810.2
49259.9,37857.3
49255.1,37906.3
48442.6,37906.3
48431.5,37889.7
48341.8,37800
48236.4,37729.6
48119.3,37681
47994.9,37656.3
47868.1,37656.3
47743.7,37681
47626.6,37729.6
47521.2,37800
47431.5,37889.7
47361.1,37995.1
47312.5,38112.2
47287.8,38236.6
46459.8,38236.6
46459.8,37131.2
51891.1,37131.2
51926.4,37228
51980,37316
52049.7,37391.9
52132.9,37452.7
52226.4,37496.1
52268.8,37508.9
52350,37460.4
52350,37050
52450,37050
52450,37460.4
52531.2,37508.9
52573.6,37496.1
52667.1,37452.7
52750.3,37391.9
52820,37316
52873.6,37228
52908.9,37131.2
53791.1,37131.2
53826.4,37228
53880,37316
53949.7,37391.9
54032.9,37452.7
54126.4,37496.1
54168.8,37508.9
54250,37460.4
54250,37050
54350,37050
54350,37460.4
54431.2,37508.9
54473.6,37496.1
54567.1,37452.7
54650.3,37391.9
54720,37316
54773.6,37228
54808.9,37131.2
54760.7,37050
54350,37050
54250,37050
53839.3,37050
53791.1,37131.2
52908.9,37131.2
52860.7,37050
52450,37050
52350,37050
51939.3,37050
51891.1,37131.2
46459.8,37131.2
46459.8,36868.8
51891.1,36868.8
51939.3,36950
52350,36950
52350,36539.6
52450,36539.6
52450,36950
52860.7,36950
52908.9,36868.8
53791.1,36868.8
53839.3,36950
54250,36950
54250,36539.6
54350,36539.6
54350,36950
54760.7,36950
54808.9,36868.8
54773.6,36772
54720,36684
54650.3,36608.1
54567.1,36547.3
54473.6,36503.9
54431.2,36491.1
54350,36539.6
54250,36539.6
54168.8,36491.1
54126.4,36503.9
54032.9,36547.3
53949.7,36608.1
53880,36684
53826.4,36772
53791.1,36868.8
52908.9,36868.8
52873.6,36772
52820,36684
52750.3,36608.1
52667.1,36547.3
52573.6,36503.9
52531.2,36491.1
52450,36539.6
52350,36539.6
52268.8,36491.1
52226.4,36503.9
52132.9,36547.3
52049.7,36608.1
51980,36684
51926.4,36772
51891.1,36868.8
46459.8,36868.8
46459.8,35600
57152.5,35600
57161.3,35689.5
57187.4,35775.6
57227.2,35850
57187.4,35924.4
57161.3,36010.5
57152.5,36100
57161.3,36189.5
57186.3,36271.7
57172.6,36297.2
57158.3,36344.3
57153.5,36393.3
57153.5,36806.7
57158.3,36855.7
57172.6,36902.8
57195.9,36946.3
57227.1,36984.3
57265.2,37015.6
57308.6,37038.8
57355.7,37053.1
57404.7,37057.9
57995.3,37057.9
58044.3,37053.1
58060.2,37048.2
59174.4,37048.2
59174.4,37151.8
59194.6,37253.3
59234.2,37349
59291.7,37435
59365,37508.3
59451,37565.8
59546.7,37605.4
59648.2,37625.6
59751.8,37625.6
59853.3,37605.4
59949,37565.8
60035,37508.3
60108.3,37435
60165.8,37349
60199.3,37268.1
66256.3,37268.1
66256.3,37394.9
66281,37519.3
66329.6,37636.4
66400,37741.8
66489.7,37831.5
66595.1,37901.9
66712.2,37950.5
66836.6,37975.2
66963.4,37975.2
67087.8,37950.5
67204.9,37901.9
67310.3,37831.5
67400,37741.8
67470.4,37636.4
67519,37519.3
67543.7,37394.9
67543.7,37268.1
67519,37143.7
67470.4,37026.6
67400,36921.2
67310.3,36831.5
67204.9,36761.1
67087.8,36712.5
66963.4,36687.8
66836.6,36687.8
66712.2,36712.5
66595.1,36761.1
66489.7,36831.5
66400,36921.2
66329.6,37026.6
66281,37143.7
66256.3,37268.1
60199.3,37268.1
60205.4,37253.3
60225.6,37151.8
60225.6,37048.2
60205.4,36946.7
60165.8,36851
60108.3,36765
60035,36691.7
59949,36634.2
59853.3,36594.6
59751.8,36574.4
59648.2,36574.4
59546.7,36594.6
59451,36634.2
59365,36691.7
59291.7,36765
59234.2,36851
59194.6,36946.7
59174.4,37048.2
58060.2,37048.2
58091.4,37038.8
58134.8,37015.6
58172.9,36984.3
58204.1,36946.3
58227.4,36902.8
58241.7,36855.7
58246.5,36806.7
58246.5,36393.3
58241.7,36344.3
58227.4,36297.2
58213.7,36271.7
58238.7,36189.5
58247.5,36100
61752.5,36100
61761.3,36189.5
61787.4,36275.6
61827.2,36350
61787.4,36424.4
61761.3,36510.5
61752.5,36600
61761.3,36689.5
61787.4,36775.6
61829.9,36855
61886.9,36924.5
61956.5,36981.6
62035.8,37024
62121.9,37050.1
62189,37056.7
62411,37056.7
62478.1,37050.1
62564.2,37024
62643.5,36981.6
62713.1,36924.5
62770.1,36855
62812.6,36775.6
62838.7,36689.5
62847.5,36600
62838.7,36510.5
62812.6,36424.4
62772.8,36350
62812.6,36275.6
62838.7,36189.5
62847.5,36100
62838.7,36010.5
62813.7,35928.3
62827.4,35902.8
62841.7,35855.7
62846.5,35806.7
62846.5,35393.3
62841.7,35344.3
62827.4,35297.2
62804.1,35253.7
62772.9,35215.7
62734.8,35184.4
62691.4,35161.2
62644.3,35146.9
62595.3,35142.1
62004.7,35142.1
61955.7,35146.9
61908.6,35161.2
61865.2,35184.4
61827.1,35215.7
61795.9,35253.7
61772.6,35297.2
61758.3,35344.3
61753.5,35393.3
61753.5,35806.7
61758.3,35855.7
61772.6,35902.8
61786.3,35928.3
61761.3,36010.5
61752.5,36100
58247.5,36100
58238.7,36010.5
58212.6,35924.4
58172.8,35850
58212.6,35775.6
58238.7,35689.5
58247.5,35600
58238.7,35510.5
58212.6,35424.4
58170.1,35345
58113.1,35275.5
58043.5,35218.4
57964.2,35176
57878.1,35149.9
57811,35143.3
57589,35143.3
57521.9,35149.9
57435.8,35176
57356.5,35218.4
57286.9,35275.5
57229.9,35345
57187.4,35424.4
57161.3,35510.5
57152.5,35600
46459.8,35600
46459.8,34948.2
51874.4,34948.2
51874.4,35051.8
51894.6,35153.3
51934.2,35249
51991.7,35335
52065,35408.3
52151,35465.8
52246.7,35505.4
52348.2,35525.6
52451.8,35525.6
52553.3,35505.4
52649,35465.8
52735,35408.3
52808.3,35335
52865.8,35249
52905.4,35153.3
52925.6,35051.8
52925.6,34948.2
53774.4,34948.2
53774.4,35051.8
53794.6,35153.3
53834.2,35249
53891.7,35335
53965,35408.3
54051,35465.8
54146.7,35505.4
54248.2,35525.6
54351.8,35525.6
54453.3,35505.4
54549,35465.8
54635,35408.3
54708.3,35335
54765.8,35249
54805.4,35153.3
54825.6,35051.8
54825.6,35048.2
59174.4,35048.2
59174.4,35151.8
59194.6,35253.3
59234.2,35349
59291.7,35435
59365,35508.3
59451,35565.8
59546.7,35605.4
59648.2,35625.6
59751.8,35625.6
59853.3,35605.4
59949,35565.8
60035,35508.3
60108.3,35435
60165.8,35349
60205.4,35253.3
60225.6,35151.8
60225.6,35048.2
60205.4,34946.7
60165.8,34851
60108.3,34765
60035,34691.7
59949,34634.2
59853.3,34594.6
59751.8,34574.4
59648.2,34574.4
59546.7,34594.6
59451,34634.2
59365,34691.7
59291.7,34765
59234.2,34851
59194.6,34946.7
59174.4,35048.2
54825.6,35048.2
54825.6,34948.2
54805.4,34846.7
54765.8,34751
54708.3,34665
54635,34591.7
54549,34534.2
54453.3,34494.6
54351.8,34474.4
54248.2,34474.4
54146.7,34494.6
54051,34534.2
53965,34591.7
53891.7,34665
53834.2,34751
53794.6,34846.7
53774.4,34948.2
52925.6,34948.2
52905.4,34846.7
52865.8,34751
52808.3,34665
52735,34591.7
52649,34534.2
52553.3,34494.6
52451.8,34474.4
52348.2,34474.4
52246.7,34494.6
52151,34534.2
52065,34591.7
51991.7,34665
51934.2,34751
51894.6,34846.7
51874.4,34948.2
46459.8,34948.2
46459.8,33136.6
47187.8,33136.6
47187.8,33263.4
47212.5,33387.8
47261.1,33504.9
47331.5,33610.3
47421.2,33700
47526.6,33770.4
47643.7,33819
47768.1,33843.7
47894.9,33843.7
48019.3,33819
48136.4,33770.4
48241.8,33700
48331.5,33610.3
48401.9,33504.9
48450.5,33387.8
48475.2,33263.4
48475.2,33136.6
48450.5,33012.2
48401.9,32895.1
48342.6,32806.3
49155.1,32806.3
49155.1,33593.7
49159.9,33642.7
49174.2,33689.8
49197.4,33733.3
49228.7,33771.3
49266.7,33802.6
49310.2,33825.8
49357.3,33840.1
49406.3,33844.9
50193.7,33844.9
50242.7,33840.1
50289.8,33825.8
50333.3,33802.6
50371.3,33771.3
50402.6,33733.3
50425.8,33689.8
50440.1,33642.7
50444.9,33593.7
50444.9,33187.3
51883.4,33187.3
51944.9,33311.5
52092.4,33386.6
52251.8,33431.5
52416.9,33444.4
52581.3,33424.9
52738.7,33373.7
52855.1,33311.5
52916.6,33187.3
52400,32670.7
51883.4,33187.3
50444.9,33187.3
50444.9,32806.3
50440.1,32757.3
50425.8,32710.2
50402.6,32666.7
50371.3,32628.7
50356.9,32616.9
51555.6,32616.9
51575.1,32781.3
51626.3,32938.7
51688.5,33055.1
51812.7,33116.6
52329.3,32600
52470.7,32600
52987.3,33116.6
53111.5,33055.1
53186.6,32907.6
53231.5,32748.2
53244.4,32583.1
53224.9,32418.7
53173.7,32261.3
53111.5,32144.9
52987.3,32083.4
52470.7,32600
52329.3,32600
51812.7,32083.4
51688.5,32144.9
51613.4,32292.4
51568.5,32451.8
51555.6,32616.9
50356.9,32616.9
50333.3,32597.4
50289.8,32574.2
50242.7,32559.9
50193.7,32555.1
49406.3,32555.1
49357.3,32559.9
49310.2,32574.2
49266.7,32597.4
49228.7,32628.7
49197.4,32666.7
49174.2,32710.2
49159.9,32757.3
49155.1,32806.3
48342.6,32806.3
48331.5,32789.7
48241.8,32700
48136.4,32629.6
48019.3,32581
47894.9,32556.3
47768.1,32556.3
47643.7,32581
47526.6,32629.6
47421.2,32700
47331.5,32789.7
47261.1,32895.1
47212.5,33012.2
47187.8,33136.6
46459.8,33136.6
46459.8,32012.7
51883.4,32012.7
52400,32529.3
52916.6,32012.7
52914.9,32009.4
53558.2,32009.4
53558.2,33190.6
53563.1,33239.6
53577.4,33286.7
53600.6,33330.1
53631.8,33368.2
53669.9,33399.4
53713.3,33422.6
53760.4,33436.9
53809.4,33441.8
54990.6,33441.8
55039.6,33436.9
55086.7,33422.6
55130.1,33399.4
55168.2,33368.2
55199.4,33330.1
55222.6,33286.7
55236.9,33239.6
55241.8,33190.6
55241.8,32517.2
56059.4,32517.2
56059.4,32682.8
56091.8,32845.2
56155.1,32998.2
56247.1,33135.8
56364.2,33252.9
56501.8,33344.9
56654.8,33408.2
56817.2,33440.6
56982.8,33440.6
57145.2,33408.2
57298.2,33344.9
57435.8,33252.9
57498.2,33190.6
58058.2,33190.6
58063.1,33239.6
58077.4,33286.7
58100.6,33330.1
58131.8,33368.2
58169.9,33399.4
58213.3,33422.6
58260.4,33436.9
58309.4,33441.8
58787.5,33440.6
58850,33378.1
58850,32650
58950,32650
58950,33378.1
59012.5,33440.6
59490.6,33441.8
59539.6,33436.9
59586.7,33422.6
59630.1,33399.4
59668.2,33368.2
59699.4,33330.1
59722.6,33286.7
59736.9,33239.6
59741.8,33190.6
59740.6,32712.5
59678.1,32650
58950,32650
58850,32650
58121.9,32650
58059.4,32712.5
58058.2,33190.6
57498.2,33190.6
57552.9,33135.8
57644.9,32998.2
57708.2,32845.2
57740.6,32682.8
57740.6,32617.2
60559.4,32617.2
60559.4,32782.8
60591.8,32945.2
60655.1,33098.2
60747.1,33235.8
60864.2,33352.9
61001.8,33444.9
61154.8,33508.2
61317.2,33540.6
61482.8,33540.6
61645.2,33508.2
61798.2,33444.9
61935.8,33352.9
61998.2,33290.6
62558.2,33290.6
62563.1,33339.6
62577.4,33386.7
62600.6,33430.1
62631.8,33468.2
62669.9,33499.4
62713.3,33522.6
62760.4,33536.9
62809.4,33541.8
63287.5,33540.6
63350,33478.1
63350,32750
63450,32750
63450,33478.1
63512.5,33540.6
63990.6,33541.8
64039.6,33536.9
64086.7,33522.6
64130.1,33499.4
64168.2,33468.2
64199.4,33430.1
64222.6,33386.7
64236.9,33339.6
64241.8,33290.6
64240.8,32906.3
65255.1,32906.3
65255.1,33693.7
65259.9,33742.7
65274.2,33789.8
65297.4,33833.3
65328.7,33871.3
65366.7,33902.6
65410.2,33925.8
65457.3,33940.1
65506.3,33944.9
66293.7,33944.9
66342.7,33940.1
66389.8,33925.8
66433.3,33902.6
66471.3,33871.3
66502.6,33833.3
66525.8,33789.8
66538.8,33747
67492.2,33747
67529.9,33851.1
67643.9,33906.6
67766.6,33938.7
67893.1,33946.3
68018.8,33929.1
68138.6,33887.7
68207.1,33851.1
68244.8,33747
67868.5,33370.7
67492.2,33747
66538.8,33747
66540.1,33742.7
66544.9,33693.7
66544.9,33324.6
67222.2,33324.6
67239.4,33450.3
67280.8,33570.1
67317.4,33638.6
67421.5,33676.3
67797.8,33300
67939.2,33300
68315.5,33676.3
68419.6,33638.6
68475.1,33524.6
68507.2,33401.9
68514.8,33275.4
68497.6,33149.7
68456.2,33029.9
68419.6,32961.4
68315.5,32923.7
67939.2,33300
67797.8,33300
67421.5,32923.7
67317.4,32961.4
67261.9,33075.4
67229.8,33198.1
67222.2,33324.6
66544.9,33324.6
66544.9,32906.3
66540.1,32857.3
66538.8,32853
67492.2,32853
67868.5,33229.3
68244.8,32853
68207.1,32748.9
68093.1,32693.4
67970.4,32661.3
67843.9,32653.7
67718.2,32670.9
67598.4,32712.3
67529.9,32748.9
67492.2,32853
66538.8,32853
66525.8,32810.2
66502.6,32766.7
66471.3,32728.7
66433.3,32697.4
66389.8,32674.2
66342.7,32659.9
66293.7,32655.1
65506.3,32655.1
65457.3,32659.9
65410.2,32674.2
65366.7,32697.4
65328.7,32728.7
65297.4,32766.7
65274.2,32810.2
65259.9,32857.3
65255.1,32906.3
64240.8,32906.3
64240.6,32812.5
64178.1,32750
63450,32750
63350,32750
62621.9,32750
62559.4,32812.5
62558.2,33290.6
61998.2,33290.6
62052.9,33235.8
62144.9,33098.2
62208.2,32945.2
62240.6,32782.8
62240.6,32617.2
62208.2,32454.8
62144.9,32301.8
62052.9,32164.2
61998.2,32109.4
62558.2,32109.4
62559.4,32587.5
62621.9,32650
63350,32650
63350,31921.9
63450,31921.9
63450,32650
64178.1,32650
64240.6,32587.5
64241.8,32109.4
64236.9,32060.4
64222.6,32013.3
64199.4,31969.9
64168.2,31931.8
64130.1,31900.6
64086.7,31877.4
64039.6,31863.1
63990.6,31858.2
63512.5,31859.4
63450,31921.9
63350,31921.9
63287.5,31859.4
62809.4,31858.2
62760.4,31863.1
62713.3,31877.4
62669.9,31900.6
62631.8,31931.8
62600.6,31969.9
62577.4,32013.3
62563.1,32060.4
62558.2,32109.4
61998.2,32109.4
61935.8,32047.1
61798.2,31955.1
61645.2,31891.8
61482.8,31859.4
61317.2,31859.4
61154.8,31891.8
61001.8,31955.1
60864.2,32047.1
60747.1,32164.2
60655.1,32301.8
60591.8,32454.8
60559.4,32617.2
57740.6,32617.2
57740.6,32517.2
57708.2,32354.8
57644.9,32201.8
57552.9,32064.2
57498.2,32009.4
58058.2,32009.4
58059.4,32487.5
58121.9,32550
58850,32550
58850,31821.9
58950,31821.9
58950,32550
59678.1,32550
59740.6,32487.5
59741.8,32009.4
59736.9,31960.4
59722.6,31913.3
59699.4,31869.9
59668.2,31831.8
59630.1,31800.6
59586.7,31777.4
59539.6,31763.1
59490.6,31758.2
59012.5,31759.4
58950,31821.9
58850,31821.9
58787.5,31759.4
58309.4,31758.2
58260.4,31763.1
58213.3,31777.4
58169.9,31800.6
58131.8,31831.8
58100.6,31869.9
58077.4,31913.3
58063.1,31960.4
58058.2,32009.4
57498.2,32009.4
57435.8,31947.1
57298.2,31855.1
57145.2,31791.8
56982.8,31759.4
56817.2,31759.4
56654.8,31791.8
56501.8,31855.1
56364.2,31947.1
56247.1,32064.2
56155.1,32201.8
56091.8,32354.8
56059.4,32517.2
55241.8,32517.2
55241.8,32009.4
55236.9,31960.4
55222.6,31913.3
55199.4,31869.9
55168.2,31831.8
55130.1,31800.6
55086.7,31777.4
55039.6,31763.1
54990.6,31758.2
53809.4,31758.2
53760.4,31763.1
53713.3,31777.4
53669.9,31800.6
53631.8,31831.8
53600.6,31869.9
53577.4,31913.3
53563.1,31960.4
53558.2,32009.4
52914.9,32009.4
52855.1,31888.5
52707.6,31813.4
52548.2,31768.5
52383.1,31755.6
52218.7,31775.1
52061.3,31826.3
51944.9,31888.5
51883.4,32012.7
46459.8,32012.7
46459.8,30259.8
69340.2,30259.8
Z" /> 
</g>
</g>
</g>
<g style="fill:#FFFFFF; fill-opacity:1.0; 
stroke:#FFFFFF; stroke-width:100; stroke-opacity:1; 
stroke-linecap:round; stroke-linejoin:round;">
</g>
<g style="fill:#FFFFFF; fill-opacity:1.0; 
stroke:#FFFFFF; stroke-width:0; stroke-opacity:1; 
stroke-linecap:round; stroke-linejoin:round;">
<circle cx="61400" cy="38200" r="137.795" /> 
</g>
<g style="fill:#FFFFFF; fill-opacity:1.0; 
stroke:#FFFFFF; stroke-width:39.3701; stroke-opacity:1; 
stroke-linecap:round; stroke-linejoin:round;">
</g>
<g style="fill:#FFFFFF; fill-opacity:1.0; 
stroke:#FFFFFF; stroke-width:0; stroke-opacity:1; 
stroke-linecap:round; stroke-linejoin:round;">
<circle cx="61400" cy="40200" r="137.795" /> 
</g>
<g style="fill:#FFFFFF; fill-opacity:1.0; 
stroke:#FFFFFF; stroke-width:39.3701; stroke-opacity:1; 
stroke-linecap:round; stroke-linejoin:round;">
</g>
<g style="fill:#FFFFFF; fill-opacity:1.0; 
stroke:#FFFFFF; stroke-width:0; stroke-opacity:1; 
stroke-linecap:round; stroke-linejoin:round;">
<circle cx="67868.5" cy="33300" r="196.85" /> 
</g>
<g style="fill:#FFFFFF; fill-opacity:1.0; 
stroke:#FFFFFF; stroke-width:39.3701; stroke-opacity:1; 
stroke-linecap:round; stroke-linejoin:round;">
</g>
<g style="fill:#FFFFFF; fill-opacity:1.0; 
stroke:#FFFFFF; stroke-width:0; stroke-opacity:1; 
stroke-linecap:round; stroke-linejoin:round;">
<circle cx="65900" cy="33300" r="196.85" /> 
</g>
<g style="fill:#FFFFFF; fill-opacity:1.0; 
stroke:#FFFFFF; stroke-width:39.3701; stroke-opacity:1; 
stroke-linecap:round; stroke-linejoin:round;">
</g>
<g style="fill:#FFFFFF; fill-opacity:1.0; 
stroke:#FFFFFF; stroke-width:0; stroke-opacity:1; 
stroke-linecap:round; stroke-linejoin:round;">
<circle cx="63700" cy="40200" r="137.795" /> 
</g>
<g style="fill:#FFFFFF; fill-opacity:1.0; 
stroke:#FFFFFF; stroke-width:39.3701; stroke-opacity:1; 
stroke-linecap:round; stroke-linejoin:round;">
</g>
<g style="fill:#FFFFFF; fill-opacity:1.0; 
stroke:#FFFFFF; stroke-width:0; stroke-opacity:1; 
stroke-linecap:round; stroke-linejoin:round;">
<circle cx="63700" cy="38200" r="137.795" /> 
</g>
<g style="fill:#FFFFFF; fill-opacity:1.0; 
stroke:#FFFFFF; stroke-width:39.3701; stroke-opacity:1; 
stroke-linecap:round; stroke-linejoin:round;">
</g>
<g style="fill:#FFFFFF; fill-opacity:1.0; 
stroke:#FFFFFF; stroke-width:0; stroke-opacity:1; 
stroke-linecap:round; stroke-linejoin:round;">
<circle cx="66900" cy="37331.5" r="196.85" /> 
</g>
<g style="fill:#FFFFFF; fill-opacity:1.0; 
stroke:#FFFFFF; stroke-width:39.3701; stroke-opacity:1; 
stroke-linecap:round; stroke-linejoin:round;">
</g>
<g style="fill:#FFFFFF; fill-opacity:1.0; 
stroke:#FFFFFF; stroke-width:0; stroke-opacity:1; 
stroke-linecap:round; stroke-linejoin:round;">
<circle cx="66900" cy="39300" r="196.85" /> 
</g>
<g style="fill:#FFFFFF; fill-opacity:1.0; 
stroke:#FFFFFF; stroke-width:39.3701; stroke-opacity:1; 
stroke-linecap:round; stroke-linejoin:round;">
</g>
<g style="fill:#FFFFFF; fill-opacity:1.0; 
stroke:#FFFFFF; stroke-width:0; stroke-opacity:1; 
stroke-linecap:round; stroke-linejoin:round;">
<circle cx="59700" cy="35100" r="137.795" /> 
</g>
<g style="fill:#FFFFFF; fill-opacity:1.0; 
stroke:#FFFFFF; stroke-width:39.3701; stroke-opacity:1; 
stroke-linecap:round; stroke-linejoin:round;">
</g>
<g style="fill:#FFFFFF; fill-opacity:1.0; 
stroke:#FFFFFF; stroke-width:0; stroke-opacity:1; 
stroke-linecap:round; stroke-linejoin:round;">
<circle cx="59700" cy="37100" r="137.795" /> 
</g>
<g style="fill:#FFFFFF; fill-opacity:1.0; 
stroke:#FFFFFF; stroke-width:39.3701; stroke-opacity:1; 
stroke-linecap:round; stroke-linejoin:round;">
</g>
<g style="fill:#FFFFFF; fill-opacity:1.0; 
stroke:#FFFFFF; stroke-width:0; stroke-opacity:1; 
stroke-linecap:round; stroke-linejoin:round;">
<circle cx="59500" cy="39100" r="236.22" /> 
</g>
<g style="fill:#FFFFFF; fill-opacity:1.0; 
stroke:#FFFFFF; stroke-width:39.3701; stroke-opacity:1; 
stroke-linecap:round; stroke-linejoin:round;">
</g>
<g style="fill:#FFFFFF; fill-opacity:1.0; 
stroke:#FFFFFF; stroke-width:0; stroke-opacity:1; 
stroke-linecap:round; stroke-linejoin:round;">
<circle cx="52413.4" cy="39100" r="236.22" /> 
</g>
<g style="fill:#FFFFFF; fill-opacity:1.0; 
stroke:#FFFFFF; stroke-width:39.3701; stroke-opacity:1; 
stroke-linecap:round; stroke-linejoin:round;">
</g>
<g style="fill:#FFFFFF; fill-opacity:1.0; 
stroke:#FFFFFF; stroke-width:0; stroke-opacity:1; 
stroke-linecap:round; stroke-linejoin:round;">
<circle cx="49800" cy="33200" r="196.85" /> 
</g>
<g style="fill:#FFFFFF; fill-opacity:1.0; 
stroke:#FFFFFF; stroke-width:39.3701; stroke-opacity:1; 
stroke-linecap:round; stroke-linejoin:round;">
</g>
<g style="fill:#FFFFFF; fill-opacity:1.0; 
stroke:#FFFFFF; stroke-width:0; stroke-opacity:1; 
stroke-linecap:round; stroke-linejoin:round;">
<circle cx="47831.5" cy="33200" r="196.85" /> 
</g>
<g style="fill:#FFFFFF; fill-opacity:1.0; 
stroke:#FFFFFF; stroke-width:39.3701; stroke-opacity:1; 
stroke-linecap:round; stroke-linejoin:round;">
</g>
<g style="fill:#FFFFFF; fill-opacity:1.0; 
stroke:#FFFFFF; stroke-width:0; stroke-opacity:1; 
stroke-linecap:round; stroke-linejoin:round;">
<circle cx="61400" cy="32700" r="299.213" /> 
</g>
<g style="fill:#FFFFFF; fill-opacity:1.0; 
stroke:#FFFFFF; stroke-width:39.3701; stroke-opacity:1; 
stroke-linecap:round; stroke-linejoin:round;">
</g>
<g style="fill:#FFFFFF; fill-opacity:1.0; 
stroke:#FFFFFF; stroke-width:0; stroke-opacity:1; 
stroke-linecap:round; stroke-linejoin:round;">
<circle cx="63400" cy="32700" r="299.213" /> 
</g>
<g style="fill:#FFFFFF; fill-opacity:1.0; 
stroke:#FFFFFF; stroke-width:39.3701; stroke-opacity:1; 
stroke-linecap:round; stroke-linejoin:round;">
</g>
<g style="fill:#FFFFFF; fill-opacity:1.0; 
stroke:#FFFFFF; stroke-width:0; stroke-opacity:1; 
stroke-linecap:round; stroke-linejoin:round;">
<circle cx="54400" cy="32600" r="299.213" /> 
</g>
<g style="fill:#FFFFFF; fill-opacity:1.0; 
stroke:#FFFFFF; stroke-width:39.3701; stroke-opacity:1; 
stroke-linecap:round; stroke-linejoin:round;">
</g>
<g style="fill:#FFFFFF; fill-opacity:1.0; 
stroke:#FFFFFF; stroke-width:0; stroke-opacity:1; 
stroke-linecap:round; stroke-linejoin:round;">
<circle cx="52400" cy="32600" r="299.213" /> 
</g>
<g style="fill:#FFFFFF; fill-opacity:1.0; 
stroke:#FFFFFF; stroke-width:39.3701; stroke-opacity:1; 
stroke-linecap:round; stroke-linejoin:round;">
</g>
<g style="fill:#FFFFFF; fill-opacity:1.0; 
stroke:#FFFFFF; stroke-width:0; stroke-opacity:1; 
stroke-linecap:round; stroke-linejoin:round;">
<circle cx="58900" cy="32600" r="299.213" /> 
</g>
<g style="fill:#FFFFFF; fill-opacity:1.0; 
stroke:#FFFFFF; stroke-width:39.3701; stroke-opacity:1; 
stroke-linecap:round; stroke-linejoin:round;">
</g>
<g style="fill:#FFFFFF; fill-opacity:1.0; 
stroke:#FFFFFF; stroke-width:0; stroke-opacity:1; 
stroke-linecap:round; stroke-linejoin:round;">
<circle cx="56900" cy="32600" r="299.213" /> 
</g>
<g style="fill:#FFFFFF; fill-opacity:1.0; 
stroke:#FFFFFF; stroke-width:39.3701; stroke-opacity:1; 
stroke-linecap:round; stroke-linejoin:round;">
</g>
<g style="fill:#FFFFFF; fill-opacity:1.0; 
stroke:#FFFFFF; stroke-width:0; stroke-opacity:1; 
stroke-linecap:round; stroke-linejoin:round;">
<circle cx="62300" cy="36100" r="147.638" /> 
</g>
<g style="fill:#FFFFFF; fill-opacity:1.0; 
stroke:#FFFFFF; stroke-width:39.3701; stroke-opacity:1; 
stroke-linecap:round; stroke-linejoin:round;">
</g>
<g style="fill:#FFFFFF; fill-opacity:1.0; 
stroke:#FFFFFF; stroke-width:0; stroke-opacity:1; 
stroke-linecap:round; stroke-linejoin:round;">
<circle cx="62300" cy="36600" r="147.638" /> 
</g>
<g style="fill:#FFFFFF; fill-opacity:1.0; 
stroke:#FFFFFF; stroke-width:39.3701; stroke-opacity:1; 
stroke-linecap:round; stroke-linejoin:round;">
</g>
<g style="fill:#FFFFFF; fill-opacity:1.0; 
stroke:#FFFFFF; stroke-width:0; stroke-opacity:1; 
stroke-linecap:round; stroke-linejoin:round;">
<circle cx="62300" cy="35600" r="147.638" /> 
</g>
<g style="fill:#FFFFFF; fill-opacity:1.0; 
stroke:#FFFFFF; stroke-width:39.3701; stroke-opacity:1; 
stroke-linecap:round; stroke-linejoin:round;">
</g>
<g style="fill:#FFFFFF; fill-opacity:1.0; 
stroke:#FFFFFF; stroke-width:0; stroke-opacity:1; 
stroke-linecap:round; stroke-linejoin:round;">
<circle cx="57700" cy="36600" r="147.638" /> 
</g>
<g style="fill:#FFFFFF; fill-opacity:1.0; 
stroke:#FFFFFF; stroke-width:39.3701; stroke-opacity:1; 
stroke-linecap:round; stroke-linejoin:round;">
</g>
<g style="fill:#FFFFFF; fill-opacity:1.0; 
stroke:#FFFFFF; stroke-width:0; stroke-opacity:1; 
stroke-linecap:round; stroke-linejoin:round;">
<circle cx="57700" cy="35600" r="147.638" /> 
</g>
<g style="fill:#FFFFFF; fill-opacity:1.0; 
stroke:#FFFFFF; stroke-width:39.3701; stroke-opacity:1; 
stroke-linecap:round; stroke-linejoin:round;">
</g>
<g style="fill:#FFFFFF; fill-opacity:1.0; 
stroke:#FFFFFF; stroke-width:0; stroke-opacity:1; 
stroke-linecap:round; stroke-linejoin:round;">
<circle cx="57700" cy="36100" r="147.638" /> 
</g>
<g style="fill:#FFFFFF; fill-opacity:1.0; 
stroke:#FFFFFF; stroke-width:39.3701; stroke-opacity:1; 
stroke-linecap:round; stroke-linejoin:round;">
</g>
<g style="fill:#FFFFFF; fill-opacity:1.0; 
stroke:#FFFFFF; stroke-width:0; stroke-opacity:1; 
stroke-linecap:round; stroke-linejoin:round;">
<circle cx="52400" cy="35000" r="137.795" /> 
</g>
<g style="fill:#FFFFFF; fill-opacity:1.0; 
stroke:#FFFFFF; stroke-width:39.3701; stroke-opacity:1; 
stroke-linecap:round; stroke-linejoin:round;">
</g>
<g style="fill:#FFFFFF; fill-opacity:1.0; 
stroke:#FFFFFF; stroke-width:0; stroke-opacity:1; 
stroke-linecap:round; stroke-linejoin:round;">
<circle cx="52400" cy="37000" r="137.795" /> 
</g>
<g style="fill:#FFFFFF; fill-opacity:1.0; 
stroke:#FFFFFF; stroke-width:39.3701; stroke-opacity:1; 
stroke-linecap:round; stroke-linejoin:round;">
</g>
<g style="fill:#FFFFFF; fill-opacity:1.0; 
stroke:#FFFFFF; stroke-width:0; stroke-opacity:1; 
stroke-linecap:round; stroke-linejoin:round;">
<circle cx="54300" cy="35000" r="137.795" /> 
</g>
<g style="fill:#FFFFFF; fill-opacity:1.0; 
stroke:#FFFFFF; stroke-width:39.3701; stroke-opacity:1; 
stroke-linecap:round; stroke-linejoin:round;">
</g>
<g style="fill:#FFFFFF; fill-opacity:1.0; 
stroke:#FFFFFF; stroke-width:0; stroke-opacity:1; 
stroke-linecap:round; stroke-linejoin:round;">
<circle cx="54300" cy="37000" r="137.795" /> 
</g>
<g style="fill:#FFFFFF; fill-opacity:1.0; 
stroke:#FFFFFF; stroke-width:39.3701; stroke-opacity:1; 
stroke-linecap:round; stroke-linejoin:round;">
</g>
<g style="fill:#FFFFFF; fill-opacity:1.0; 
stroke:#FFFFFF; stroke-width:0; stroke-opacity:1; 
stroke-linecap:round; stroke-linejoin:round;">
<circle cx="49900" cy="38300" r="196.85" /> 
</g>
<g style="fill:#FFFFFF; fill-opacity:1.0; 
stroke:#FFFFFF; stroke-width:39.3701; stroke-opacity:1; 
stroke-linecap:round; stroke-linejoin:round;">
</g>
<g style="fill:#FFFFFF; fill-opacity:1.0; 
stroke:#FFFFFF; stroke-width:0; stroke-opacity:1; 
stroke-linecap:round; stroke-linejoin:round;">
<circle cx="47931.5" cy="38300" r="196.85" /> 
</g>
<g style="fill:#FFFFFF; fill-opacity:1.0; 
stroke:#FFFFFF; stroke-width:39.3701; stroke-opacity:1; 
stroke-linecap:round; stroke-linejoin:round;">
</g>
<g style="fill:#000000; fill-opacity:1.0; 
stroke:#000000; stroke-width:39.3701; stroke-opacity:1; 
stroke-linecap:round; stroke-linejoin:round;">
</g>
<g style="fill:#C2C200; fill-opacity:1.0; 
stroke:#C2C200; stroke-width:39.3701; stroke-opacity:1; 
stroke-linecap:round; stroke-linejoin:round;">
</g>
<g style="fill:#C2C200; fill-opacity:1.0; 
stroke:#C2C200; stroke-width:19.685; stroke-opacity:1; 
stroke-linecap:round; stroke-linejoin:round;">
</g>
<g style="fill:#C2C200; fill-opacity:0.0; 
stroke:#C2C200; stroke-width:19.685; stroke-opacity:1; 
stroke-linecap:round; stroke-linejoin:round;">
<path d="M46200 30000
L69600 30000
" />
<path d="M69600 30000
L69600 41800
" />
<path d="M69600 41800
L46200 41800
" />
<path d="M46200 41800
L46200 30000
" />
<g >
</g>
<g >
</g>
<g >
</g>
<g >
</g>
<g >
</g>
<g >
</g>
<g >
</g>
<g >
</g>
<g >
</g>
<g >
</g>
<g >
</g>
<g >
</g>
<g >
</g>
<g >
</g>
<g >
</g>
<g >
</g>
</g> 
</svg>
